<svg width="16" height="14" viewBox="0 0 16 14" fill="none" xmlns="http://www.w3.org/2000/svg">
<path d="M2.7179 3.39493C2.7179 2.69867 2.99449 2.03092 3.48683 1.53858C3.97916 1.04624 4.64691 0.769653 5.34318 0.769653H10.5937C11.29 0.769653 11.9578 1.04624 12.4501 1.53858C12.9424 2.03092 13.219 2.69867 13.219 3.39493V5.02261C13.812 5.14365 14.3449 5.46585 14.7277 5.93468C15.1104 6.40351 15.3194 6.99018 15.3192 7.59538V12.8459C15.3192 12.9852 15.2639 13.1187 15.1655 13.2172C15.067 13.3157 14.9334 13.371 14.7942 13.371C14.6549 13.371 14.5214 13.3157 14.4229 13.2172C14.3245 13.1187 14.2691 12.9852 14.2691 12.8459V10.2207H1.66779V12.8459C1.66779 12.9852 1.61247 13.1187 1.514 13.2172C1.41554 13.3157 1.28199 13.371 1.14273 13.371C1.00348 13.371 0.869928 13.3157 0.771461 13.2172C0.672994 13.1187 0.617676 12.9852 0.617676 12.8459V7.59538C0.617552 6.99018 0.826534 6.40351 1.20925 5.93468C1.59197 5.46585 2.12492 5.14365 2.7179 5.02261V3.39493ZM1.66779 9.17055H14.2691V7.59538C14.2691 7.17762 14.1032 6.77697 13.8078 6.48157C13.5124 6.18617 13.1117 6.02021 12.694 6.02021H3.24296C2.8252 6.02021 2.42455 6.18617 2.12914 6.48157C1.83374 6.77697 1.66779 7.17762 1.66779 7.59538V9.17055ZM12.1689 3.39493C12.1689 2.97717 12.003 2.57652 11.7076 2.28112C11.4122 1.98572 11.0115 1.81977 10.5937 1.81977H5.34318C4.92542 1.81977 4.52477 1.98572 4.22937 2.28112C3.93397 2.57652 3.76801 2.97717 3.76801 3.39493V4.9701H4.81812V4.44505C4.81812 4.30579 4.87344 4.17224 4.97191 4.07378C5.07038 3.97531 5.20393 3.91999 5.34318 3.91999H6.91835C7.0576 3.91999 7.19115 3.97531 7.28962 4.07378C7.38809 4.17224 7.4434 4.30579 7.4434 4.44505V4.9701H8.49352V4.44505C8.49352 4.30579 8.54883 4.17224 8.6473 4.07378C8.74577 3.97531 8.87932 3.91999 9.01857 3.91999H10.5937C10.733 3.91999 10.8665 3.97531 10.965 4.07378C11.0635 4.17224 11.1188 4.30579 11.1188 4.44505V4.9701H12.1689V3.39493Z" fill="#412525"/>
</svg>
