<svg width="11" height="11" viewBox="0 0 11 11" fill="none" xmlns="http://www.w3.org/2000/svg">
<path fill-rule="evenodd" clip-rule="evenodd" d="M5.14706 0C2.30442 0 0 2.30442 0 5.14706C0 7.9897 2.30442 10.2941 5.14706 10.2941C7.9897 10.2941 10.2941 7.9897 10.2941 5.14706C10.2941 2.30442 7.9897 0 5.14706 0ZM7.24011 4.18831C7.42127 3.9799 7.39918 3.66409 7.19076 3.48293C6.98235 3.30177 6.66654 3.32386 6.48538 3.53228L4.5488 5.76019L3.29613 4.8511C3.07263 4.6889 2.75998 4.7386 2.59778 4.96209C2.43559 5.18558 2.48528 5.49824 2.70878 5.66043L4.33207 6.83849L4.70269 7.10746L5.00311 6.76184L7.24011 4.18831Z" fill="#6FCF97"/>
</svg>
