<svg width="18" height="18" viewBox="0 0 18 18" fill="none" xmlns="http://www.w3.org/2000/svg">
<path d="M2.56125 17.6842L2.5875 17.6925C3.5625 18 4.4625 18 6.2625 18H11.7225C13.53 18 14.43 18 15.3975 17.7C16.4678 17.3048 17.2973 16.4745 17.6842 15.4305L17.6925 15.4042C18 14.4285 18 13.5278 18 11.7277V6.288C18 4.47975 18 3.579 17.6925 2.604C17.2973 1.5375 16.4708 0.711 15.4313 0.324L15.405 0.315C14.4225 0 13.53 0 11.715 0H6.27C4.47 0 3.5625 0 2.595 0.3C1.52775 0.69675 0.70125 1.52625 0.31575 2.5695L0.3075 2.59575C0 3.5715 0 4.4715 0 6.27225V11.727C0 13.5352 0 14.4277 0.3 15.4035C0.69525 16.47 1.52175 17.2973 2.56125 17.6842ZM4.91925 11.8328L5.66925 11.1053C5.7345 11.0437 5.823 11.0063 5.9205 11.0063C6.018 11.0063 6.1065 11.0437 6.17175 11.106C6.85425 11.751 7.76925 12.1117 8.71425 12.0968C9.68925 12.0968 10.3417 11.6842 10.3417 11.031C10.3417 10.3778 9.68175 10.206 8.43675 9.74025C7.11675 9.26775 5.86425 8.5995 5.86425 7.0395C5.86425 5.22375 7.37175 4.33875 9.15675 4.2555L9.34425 3.333C9.38025 3.16875 9.52425 3.048 9.69675 3.048C9.69975 3.048 9.702 3.048 9.705 3.048H11.0392L11.1143 3.0555C11.3092 3.1005 11.4368 3.288 11.3918 3.483L11.1892 4.51125C11.8643 4.73625 12.5017 5.08875 13.0492 5.5545L13.0643 5.5695C13.2068 5.7195 13.2068 5.9445 13.0643 6.0795L12.3675 6.777C12.3007 6.83925 12.2108 6.8775 12.1117 6.8775C12.0173 6.8775 11.9303 6.84225 11.8643 6.7845H11.865C11.2177 6.2355 10.3733 5.901 9.45 5.8995C8.7225 5.8995 7.995 6.1395 7.995 6.80775C7.995 7.48275 8.775 7.70775 9.675 8.046C11.25 8.571 12.555 9.23175 12.555 10.7775C12.555 12.4583 11.25 13.614 9.12 13.7415L8.925 14.6423C8.889 14.8103 8.742 14.9347 8.565 14.9347H7.2225L7.155 14.9272C6.98625 14.8883 6.86175 14.739 6.86175 14.5613C6.86175 14.5343 6.86475 14.508 6.87 14.4825L6.86925 14.4847L7.07925 13.5315C6.23625 13.3155 5.50725 12.906 4.91625 12.351L4.91925 12.3533V12.3458C4.854 12.2805 4.8135 12.1905 4.8135 12.0907C4.8135 11.991 4.854 11.898 4.91925 11.8328Z" fill="#01D031"/>
</svg>
