<svg width="12" height="12" viewBox="0 0 12 12" fill="none" xmlns="http://www.w3.org/2000/svg">
<path d="M0.87309 11.7725C0.783442 11.7724 0.694808 11.7536 0.612822 11.7173C0.530837 11.681 0.457295 11.6281 0.396872 11.5619C0.335357 11.4962 0.288417 11.4183 0.25913 11.3332C0.229843 11.2481 0.218871 11.1578 0.226933 11.0682L0.385242 9.32746L7.69845 2.01684L9.98391 4.30165L2.67264 11.6116L0.931891 11.7699C0.912343 11.7717 0.89272 11.7726 0.87309 11.7725ZM10.4401 3.84482L8.15528 1.56001L9.52578 0.189509C9.58579 0.129432 9.65705 0.081772 9.7355 0.0492546C9.81394 0.0167372 9.89802 0 9.98294 0C10.0679 0 10.1519 0.0167372 10.2304 0.0492546C10.3088 0.081772 10.3801 0.129432 10.4401 0.189509L11.8106 1.56001C11.8707 1.62002 11.9183 1.69128 11.9508 1.76973C11.9834 1.84817 12.0001 1.93225 12.0001 2.01716C12.0001 2.10208 11.9834 2.18616 11.9508 2.2646C11.9183 2.34305 11.8707 2.41431 11.8106 2.47432L10.4407 3.84417L10.4401 3.84482Z" fill="#412525"/>
</svg>
