<svg width="20" height="20" viewBox="0 0 20 20" fill="none" xmlns="http://www.w3.org/2000/svg">
<path d="M16.9679 1.55775C15.8793 0.506059 13.9115 0.0551758 11.3941 0.0551758H4.08784C3.83876 0.0551836 3.59786 0.130502 3.40844 0.26759C3.21902 0.404679 3.09351 0.594544 3.05448 0.80305L0.0122891 17.1569C-0.0481797 17.4794 0.24643 17.7714 0.632055 17.7714H5.14268L6.27549 11.6812L6.24034 11.8719C6.32104 11.4414 6.75541 11.1239 7.26979 11.1239H9.41323C13.624 11.1239 16.9211 9.67424 17.8842 5.48068C17.9128 5.35665 17.9376 5.23593 17.959 5.118C17.8375 5.06343 17.8375 5.06343 17.959 5.118C18.2458 3.56801 17.9571 2.51295 16.9679 1.55775Z" fill="#27346A"/>
<path d="M8.00094 4.55964C8.12426 4.50987 8.25913 4.48408 8.39571 4.48415H14.1237C14.802 4.48415 15.4346 4.52156 16.0127 4.60043C16.1745 4.62229 16.3355 4.6484 16.4953 4.6787C16.7219 4.72108 16.9459 4.77295 17.1664 4.83412C17.4506 4.91457 17.7153 5.00827 17.9586 5.118C18.2453 3.56742 17.9566 2.51295 16.9674 1.55775C15.8782 0.506059 13.911 0.0551758 11.3936 0.0551758H4.08672C3.57227 0.0551758 3.13461 0.372628 3.05399 0.80305L0.0118012 17.1563C-0.0486676 17.4793 0.245942 17.7709 0.630942 17.7709H5.14219L7.49243 5.13839C7.51554 5.01423 7.57389 4.89668 7.66247 4.79586C7.75106 4.69504 7.86721 4.61398 8.00094 4.55964Z" fill="#27346A"/>
<path d="M17.8827 5.4806C16.9196 9.67357 13.6226 11.1238 9.41172 11.1238H7.26765C6.75328 11.1238 6.31883 11.4413 6.2389 11.8718L4.82961 19.4443C4.77695 19.7265 5.03445 19.9822 5.37133 19.9822H9.17367C9.39148 19.9822 9.60212 19.9163 9.76772 19.7963C9.93331 19.6764 10.043 19.5103 10.077 19.328L10.1141 19.1638L10.8307 15.3141L10.8769 15.1013C10.9109 14.919 11.0206 14.7529 11.1862 14.633C11.3517 14.5131 11.5624 14.4471 11.7802 14.4471H12.3492C16.0326 14.4471 18.9167 13.1787 19.7595 9.51047C20.1113 7.97751 19.9293 6.69763 18.9987 5.79865C18.7164 5.52636 18.3659 5.30148 17.9575 5.11792C17.9354 5.23645 17.9114 5.35657 17.8827 5.4806Z" fill="#2790C3"/>
<path d="M16.9488 4.77717C16.7987 4.74 16.6471 4.7071 16.4943 4.67851C16.3344 4.6487 16.1734 4.62277 16.0117 4.60076C15.433 4.52137 14.8008 4.48389 14.1219 4.48389H8.39463C8.25795 4.48363 8.12297 4.50964 7.99986 4.55997C7.86598 4.61414 7.74969 4.69516 7.66107 4.79601C7.57245 4.89685 7.51417 5.01449 7.49127 5.13872L6.27393 11.681L6.23877 11.8717C6.31885 11.4412 6.75322 11.1237 7.26768 11.1237H9.41174C13.6225 11.1237 16.9195 9.67403 17.8827 5.48048C17.9113 5.35645 17.9354 5.23626 17.9575 5.1178C17.7136 5.00867 17.4496 4.91438 17.1653 4.83445C17.0936 4.81429 17.0214 4.7952 16.9489 4.77717" fill="#1F264F"/>
</svg>
