<svg width="78" height="78" viewBox="0 0 78 78" fill="none" xmlns="http://www.w3.org/2000/svg">
<path fill-rule="evenodd" clip-rule="evenodd" d="M39 5.44186C20.4664 5.44186 5.44186 20.4664 5.44186 39C5.44186 57.5336 20.4664 72.5581 39 72.5581C57.5336 72.5581 72.5581 57.5336 72.5581 39C72.5581 20.4664 57.5336 5.44186 39 5.44186ZM0 39C0 17.4609 17.4609 0 39 0C60.5391 0 78 17.4609 78 39C78 60.5391 60.5391 78 39 78C17.4609 78 0 60.5391 0 39Z" fill="#FE2D3F"/>
<path fill-rule="evenodd" clip-rule="evenodd" d="M51.8079 26.1924C52.8705 27.255 52.8705 28.9778 51.8079 30.0404L30.0404 51.8079C28.9778 52.8705 27.255 52.8705 26.1924 51.8079C25.1299 50.7453 25.1299 49.0225 26.1924 47.9599L47.9599 26.1924C49.0225 25.1299 50.7453 25.1299 51.8079 26.1924Z" fill="#FE2D3F"/>
<path fill-rule="evenodd" clip-rule="evenodd" d="M26.1924 26.1924C27.255 25.1299 28.9778 25.1299 30.0404 26.1924L51.8079 47.9599C52.8705 49.0225 52.8705 50.7453 51.8079 51.8079C50.7453 52.8705 49.0225 52.8705 47.9599 51.8079L26.1924 30.0404C25.1299 28.9778 25.1299 27.255 26.1924 26.1924Z" fill="#FE2D3F"/>
</svg>
