<svg width="25" height="19" viewBox="0 0 25 19" fill="none" xmlns="http://www.w3.org/2000/svg">
<path opacity="0.157064" fill-rule="evenodd" clip-rule="evenodd" d="M10.2493 12.8189C10.2493 16.1904 8.51801 19 5.33241 19C2.00831 19 0 16.0148 0 12.0111C0 5.68946 4.67452 1.47505 9.34903 0L10.3532 2.24769C7.37535 3.37153 5.12465 5.44362 5.12465 8.11275C5.12465 10.7819 7.16759 12.573 10.2493 12.8189ZM24.8961 12.8189C24.8961 16.1904 23.1648 19 19.9792 19C16.6551 19 14.6468 16.0148 14.6468 12.0111C14.6468 5.68946 19.3213 1.47505 23.9958 0L25 2.24769C22.0222 3.37153 19.7715 5.44362 19.7715 8.11275C19.7715 10.7819 21.8144 12.573 24.8961 12.8189Z" fill="#FF765E"/>
</svg>
