<svg width="15" height="15" viewBox="0 0 15 15" fill="none" xmlns="http://www.w3.org/2000/svg">
<path fill-rule="evenodd" clip-rule="evenodd" d="M10.844 3.97188C10.844 5.88449 9.36077 7.43609 7.53112 7.43609C5.70223 7.43609 4.219 5.88449 4.219 3.97188C4.219 2.05159 5.70223 0.5 7.53112 0.5C9.36077 0.5 10.844 2.05159 10.844 3.97188ZM14.938 14.7852C14.8739 14.0034 14.6956 13.2393 14.4092 12.5191C14.043 11.588 13.5063 10.7536 12.8326 10.0422C12.1581 9.33951 11.3588 8.77738 10.4822 8.3997C9.60478 8.02202 8.66584 7.82 7.719 7.82C6.77216 7.82 5.83322 8.02202 4.95577 8.3997C4.0792 8.77738 3.27992 9.33951 2.60536 10.0422C1.93168 10.7536 1.39502 11.588 1.02876 12.5191C0.742419 13.2393 0.564118 14.0034 0.5 14.7852H14.938Z" fill="#FEA401"/>
</svg>
