<svg width="16" height="16" viewBox="0 0 16 16" fill="none" xmlns="http://www.w3.org/2000/svg">
<path fill-rule="evenodd" clip-rule="evenodd" d="M0 8C0 3.58172 3.58172 0 8 0C12.4183 0 16 3.58172 16 8C16 12.4183 12.4183 16 8 16C3.58172 16 0 12.4183 0 8ZM8 2C4.68629 2 2 4.68629 2 8C2 11.3137 4.68629 14 8 14C11.3137 14 14 11.3137 14 8C14 4.68629 11.3137 2 8 2ZM8 4.2C8.55229 4.2 9 4.64772 9 5.2V8C9 8.55228 8.55229 9 8 9C7.44772 9 7 8.55228 7 8V5.2C7 4.64772 7.44772 4.2 8 4.2ZM8 9.8C7.44772 9.8 7 10.2477 7 10.8C7 11.3523 7.44772 11.8 8 11.8H8.007C8.55929 11.8 9.007 11.3523 9.007 10.8C9.007 10.2477 8.55929 9.8 8.007 9.8H8Z" fill="#FEA401"/>
</svg>
