<svg width="14" height="17" viewBox="0 0 14 17" fill="none" xmlns="http://www.w3.org/2000/svg">
<path fill-rule="evenodd" clip-rule="evenodd" d="M7 2C4.23858 2 2 4.23858 2 7C2 8.93139 3.26574 10.8542 4.72595 12.3956C5.43561 13.1447 6.14867 13.7591 6.68543 14.1865C6.79915 14.277 6.9046 14.3589 7 14.4316C7.0954 14.3589 7.20085 14.277 7.31457 14.1865C7.85133 13.7591 8.56439 13.1447 9.27405 12.3956C10.7343 10.8542 12 8.93139 12 7C12 4.23858 9.76142 2 7 2ZM7 15.6667C6.4453 16.4987 6.44506 16.4986 6.44479 16.4984L6.44415 16.4979L6.44245 16.4968L6.43741 16.4934L6.42092 16.4823C6.40713 16.4729 6.38778 16.4597 6.36325 16.4427C6.31419 16.4087 6.24435 16.3597 6.1567 16.2964C5.98148 16.1698 5.73449 15.9859 5.43957 15.751C4.85133 15.2826 4.06439 14.6053 3.27405 13.7711C1.73426 12.1458 0 9.73527 0 7C5.96046e-08 3.13401 3.13401 0 7 0C10.866 0 14 3.13401 14 7C14 9.73527 12.2657 12.1458 10.726 13.7711C9.93561 14.6053 9.14867 15.2826 8.56043 15.751C8.26551 15.9859 8.01852 16.1698 7.8433 16.2964C7.75565 16.3597 7.68581 16.4087 7.63675 16.4427C7.61222 16.4597 7.59287 16.4729 7.57908 16.4823L7.56259 16.4934L7.55755 16.4968L7.55585 16.4979L7.55521 16.4984C7.55494 16.4986 7.5547 16.4987 7 15.6667ZM7 15.6667L7.5547 16.4987C7.2188 16.7227 6.7812 16.7227 6.4453 16.4987L7 15.6667ZM4 7C4 5.34315 5.34315 4 7 4C8.65685 4 10 5.34315 10 7C10 8.65685 8.65685 10 7 10C5.34315 10 4 8.65685 4 7ZM7 6C6.44772 6 6 6.44772 6 7C6 7.55228 6.44772 8 7 8C7.55228 8 8 7.55228 8 7C8 6.44772 7.55228 6 7 6Z" fill="#FEA401"/>
</svg>
