<svg width="24" height="24" viewBox="0 0 24 24" fill="none" xmlns="http://www.w3.org/2000/svg">
<path fill-rule="evenodd" clip-rule="evenodd" d="M8.70711 3.29289C8.31658 2.90237 7.68342 2.90237 7.29289 3.29289C6.90237 3.68342 6.90237 4.31658 7.29289 4.70711L9.58579 7H6C4.34315 7 3 8.34315 3 10V18C3 19.6569 4.34315 21 6 21H18C19.6569 21 21 19.6569 21 18V10C21 8.34315 19.6569 7 18 7H14.4142L16.7071 4.70711C17.0976 4.31658 17.0976 3.68342 16.7071 3.29289C16.3166 2.90237 15.6834 2.90237 15.2929 3.29289L12 6.58579L8.70711 3.29289ZM5 10C5 9.44772 5.44772 9 6 9H18C18.5523 9 19 9.44772 19 10V18C19 18.5523 18.5523 19 18 19H6C5.44772 19 5 18.5523 5 18V10Z" fill="#FEA401"/>
</svg>
