<svg width="24" height="24" viewBox="0 0 24 24" fill="none" xmlns="http://www.w3.org/2000/svg">
<path fill-rule="evenodd" clip-rule="evenodd" d="M18.02 12.3157C14.3122 9.22739 8.92782 9.22739 5.22001 12.3157C4.79565 12.6692 4.1651 12.6117 3.81164 12.1874C3.45818 11.763 3.51565 11.1324 3.94001 10.779C8.38939 7.07297 14.8506 7.07297 19.3 10.779C19.7244 11.1324 19.7818 11.763 19.4284 12.1874C19.0749 12.6117 18.4444 12.6692 18.02 12.3157ZM21.4988 8.74752C15.8302 3.75083 7.32983 3.75083 1.66126 8.74752C1.24696 9.11271 0.615045 9.07291 0.249847 8.6586C-0.115352 8.2443 -0.0755428 7.61238 0.338762 7.24718C6.76314 1.58427 16.3969 1.58427 22.8213 7.24718C23.2356 7.61238 23.2754 8.2443 22.9102 8.6586C22.545 9.07291 21.9131 9.11271 21.4988 8.74752ZM14.4808 15.9226C12.7468 14.6906 10.4232 14.6906 8.68918 15.9226C8.23895 16.2424 7.61467 16.1367 7.2948 15.6865C6.97494 15.2363 7.08062 14.612 7.53085 14.2921C9.95848 12.5674 13.2115 12.5674 15.6392 14.2921C16.0894 14.612 16.1951 15.2363 15.8752 15.6865C15.5554 16.1367 14.9311 16.2424 14.4808 15.9226ZM10.58 18.9974C10.58 18.4451 11.0277 17.9974 11.58 17.9974H11.59C12.1423 17.9974 12.59 18.4451 12.59 18.9974C12.59 19.5496 12.1423 19.9974 11.59 19.9974H11.58C11.0277 19.9974 10.58 19.5496 10.58 18.9974Z" fill="#FEA401"/>
</svg>
