<svg width="21" height="21" viewBox="0 0 21 21" fill="none" xmlns="http://www.w3.org/2000/svg">
<g clip-path="url(#clip0)">
<path fill-rule="evenodd" clip-rule="evenodd" d="M14.1003 14.2537C14.1678 14.1717 14.2564 14.1097 14.3565 14.0743C14.4566 14.039 14.5645 14.0316 14.6685 14.053C16.1642 14.3634 17.6943 14.8335 18.8656 15.4787C19.9984 16.1029 21 17.0088 21 18.2583V20.4178C21 20.5725 20.9385 20.7209 20.8291 20.8302C20.7197 20.9396 20.5714 21.0011 20.4167 21.0011H0.583333C0.428624 21.0011 0.280251 20.9396 0.170854 20.8302C0.0614583 20.7209 0 20.5725 0 20.4178V18.2583C0 17.0158 1.02083 16.1157 2.15367 15.4968C3.32967 14.8534 4.86033 14.3797 6.33792 14.0653C6.44239 14.0431 6.55095 14.05 6.65175 14.0853C6.75256 14.1206 6.84174 14.1829 6.90958 14.2654L10.5 18.6252L14.1003 14.2537ZM14.7747 15.2699L11.0157 19.8344H19.8333V18.2583C19.8333 17.6954 19.369 17.0881 18.3027 16.5007C17.3571 15.9798 16.093 15.565 14.7747 15.2699ZM9.98433 19.8344L6.23583 15.2827C4.93208 15.5819 3.66567 15.999 2.71308 16.5199C1.63333 17.1109 1.16667 17.7134 1.16667 18.2583V19.8344H9.98433Z" fill="#FEA401"/>
<path d="M16.9166 17.1121C16.9166 17.1121 16.1391 16.7236 15.75 16.3345C15.3609 16.7236 14.5833 17.1121 14.5833 17.1121C14.5833 17.1121 14.9905 18.6678 15.75 18.6678C16.5095 18.6678 16.9166 17.1121 16.9166 17.1121Z" fill="#FEA401"/>
<path fill-rule="evenodd" clip-rule="evenodd" d="M8.45831 14.5844C8.45831 14.275 8.58123 13.9782 8.80002 13.7594C9.01881 13.5406 9.31556 13.4177 9.62498 13.4177H11.375C11.6844 13.4177 11.9811 13.5406 12.1999 13.7594C12.4187 13.9782 12.5416 14.275 12.5416 14.5844V15.3906C12.5416 15.5805 12.4952 15.7676 12.4065 15.9355C12.3177 16.1035 12.1893 16.2472 12.0324 16.3542L12.3229 17.8085L11.1796 18.0371L10.8027 16.1571C10.7777 16.0316 10.7947 15.9014 10.851 15.7865C10.9073 15.6716 10.9998 15.5784 11.1142 15.5212L11.375 15.3906V14.5844H9.62498V15.3906L9.88573 15.5212C9.99885 15.5778 10.0905 15.6696 10.1469 15.7828C10.2033 15.896 10.2214 16.0245 10.1984 16.1489L9.87465 17.8989L8.72723 17.6866L8.9734 16.3583C8.81474 16.2515 8.68479 16.1073 8.59497 15.9384C8.50515 15.7696 8.45822 15.5812 8.45831 15.39V14.5844Z" fill="#FEA401"/>
<path fill-rule="evenodd" clip-rule="evenodd" d="M7.37186 4.95947H13.6275V6.12614H7.37186V4.95947ZM6.45019 6.35831C6.54242 6.33184 6.63976 6.32853 6.73357 6.34868C6.82739 6.36882 6.91479 6.4118 6.98802 6.47381C7.43544 6.85297 8.41077 7.29281 10.4997 7.29281C12.5886 7.29281 13.5639 6.85297 14.0114 6.47381C14.0846 6.41176 14.1719 6.36873 14.2658 6.34853C14.3596 6.32833 14.4569 6.33159 14.5492 6.35801C14.6414 6.38443 14.7257 6.43321 14.7946 6.50001C14.8635 6.56681 14.9149 6.64958 14.9441 6.74097C15.1683 7.44077 15.2241 8.18362 15.1069 8.90905C14.9898 9.63448 14.7029 10.322 14.2698 10.9156C13.8366 11.5092 13.2694 11.9921 12.6144 12.3251C11.9593 12.658 11.2348 12.8316 10.5 12.8316C9.76515 12.8316 9.0407 12.658 8.38561 12.3251C7.73053 11.9921 7.16333 11.5092 6.73019 10.9156C6.29705 10.322 6.01021 9.63448 5.89303 8.90905C5.77585 8.18362 5.83164 7.44077 6.05586 6.74097C6.08509 6.6497 6.13637 6.56704 6.20514 6.5003C6.27392 6.43356 6.35808 6.38479 6.45019 6.35831ZM7.01311 7.85572C6.97016 8.33953 7.02838 8.82699 7.18407 9.28708C7.33976 9.74716 7.58951 10.1698 7.91743 10.5281C8.24534 10.8864 8.64425 11.1726 9.08877 11.3683C9.53329 11.5641 10.0137 11.6652 10.4994 11.6652C10.9851 11.6652 11.4655 11.5641 11.91 11.3683C12.3545 11.1726 12.7535 10.8864 13.0814 10.5281C13.4093 10.1698 13.659 9.74716 13.8147 9.28708C13.9704 8.82699 14.0286 8.33953 13.9857 7.85572C13.2064 8.22264 12.0904 8.45947 10.4997 8.45947C8.91011 8.45947 7.79302 8.22264 7.01311 7.85572Z" fill="#FEA401"/>
<path fill-rule="evenodd" clip-rule="evenodd" d="M10.6073 0.0110445L10.5 0.584461L10.3927 0.0110445L10.5 -0.00878906L10.6073 0.0110445ZM15.6182 5.79363C15.777 5.62365 15.9174 5.43731 16.037 5.23771C16.3398 4.73779 16.625 3.99229 16.625 2.97438C16.625 2.59579 16.4313 2.29421 16.2242 2.07896C16.016 1.86138 15.743 1.67646 15.4583 1.51896C14.8861 1.20221 14.1482 0.931545 13.4429 0.713961C12.8003 0.518079 12.1506 0.346071 11.4952 0.198294C11.2222 0.136099 10.9484 0.0777597 10.6738 0.0232945L10.6254 0.0145443L10.612 0.0122111L10.6073 0.0110445L10.5 0.584461L10.3927 0.0110445L10.388 0.0122111L10.3746 0.0145443L10.3262 0.0238777L10.1453 0.0600443C9.99017 0.0915443 9.76908 0.138211 9.50483 0.198294C8.97692 0.318461 8.26817 0.494044 7.5565 0.713961C6.85183 0.931545 6.11392 1.20221 5.54167 1.51896C5.257 1.67646 4.984 1.86138 4.77575 2.07896C4.56867 2.29421 4.375 2.59579 4.375 2.97438C4.375 3.99229 4.66083 4.73779 4.963 5.23771C5.11175 5.48388 5.26283 5.66763 5.38183 5.79363C5.38767 5.86071 5.39642 5.93596 5.41275 6.01763C5.47167 6.32504 5.62042 6.71763 5.9605 7.09796C6.64183 7.86096 7.9765 8.45946 10.5 8.45946C13.0235 8.45946 14.3582 7.86096 15.0395 7.09796C15.3172 6.79445 15.5068 6.42092 15.5878 6.01763C15.603 5.93596 15.6129 5.86071 15.6182 5.79363ZM14.3138 6.12613H6.68617C6.7235 6.18854 6.77075 6.25446 6.83025 6.32096C7.19133 6.72463 8.12292 7.29279 10.5 7.29279C12.8771 7.29279 13.8087 6.72463 14.1692 6.32096C14.2292 6.25388 14.2765 6.18854 14.3138 6.12613ZM6.19967 4.95946H14.8003C14.8662 4.88538 14.952 4.77804 15.0389 4.63396C15.239 4.30321 15.456 3.76829 15.4583 2.98663C15.4388 2.94918 15.4132 2.91526 15.3825 2.88629C15.288 2.78771 15.1282 2.66929 14.8931 2.53979C14.4264 2.28138 13.7789 2.03871 13.0988 1.82813C12.4844 1.64131 11.8633 1.47728 11.2368 1.33638C10.9919 1.28064 10.7463 1.22814 10.5 1.17888C10.4667 1.18471 10.4259 1.19346 10.3787 1.20279C10.2305 1.23313 10.0182 1.27863 9.76325 1.33638C9.25225 1.45246 8.575 1.62046 7.90125 1.82871C7.22108 2.03871 6.57358 2.28138 6.10692 2.53979C5.87183 2.66929 5.712 2.78771 5.61692 2.88629C5.58641 2.91531 5.56098 2.94922 5.54167 2.98663C5.544 3.76829 5.761 4.30321 5.96167 4.63396C6.048 4.77746 6.13375 4.88538 6.19967 4.95946ZM5.53992 2.99188V2.99013V2.99188ZM15.4601 2.99188V2.99013V2.99188Z" fill="#FEA401"/>
<path d="M11.375 3.20947C11.375 3.44154 11.2828 3.6641 11.1187 3.82819C10.9546 3.99229 10.7321 4.08447 10.5 4.08447C10.2679 4.08447 10.0454 3.99229 9.88128 3.82819C9.71719 3.6641 9.625 3.44154 9.625 3.20947C9.625 2.97741 9.71719 2.75485 9.88128 2.59075C10.0454 2.42666 10.2679 2.33447 10.5 2.33447C10.7321 2.33447 10.9546 2.42666 11.1187 2.59075C11.2828 2.75485 11.375 2.97741 11.375 3.20947Z" fill="#FEA401"/>
</g>
<defs>
<clipPath id="clip0">
<rect width="21" height="21" fill="white"/>
</clipPath>
</defs>
</svg>
