<svg width="24" height="24" viewBox="0 0 24 24" fill="none" xmlns="http://www.w3.org/2000/svg">
<path d="M17 3.01L5 3C3.89 3 3 3.89 3 5V21C3 22.11 3.89 23 5 23H17C18.11 23 19 22.11 19 21V5C19 3.89 18.11 3.01 17 3.01ZM17 21H5L4.99 5H17V21Z" fill="#FEA401"/>
<path d="M7 8C7.55228 8 8 7.55228 8 7C8 6.44772 7.55228 6 7 6C6.44772 6 6 6.44772 6 7C6 7.55228 6.44772 8 7 8Z" fill="#FEA401"/>
<path d="M10 8C10.5523 8 11 7.55228 11 7C11 6.44772 10.5523 6 10 6C9.44772 6 9 6.44772 9 7C9 7.55228 9.44772 8 10 8Z" fill="#FEA401"/>
<path d="M11 20C13.76 20 16 17.76 16 15C16 12.24 13.76 10 11 10C8.24 10 6 12.24 6 15C6 17.76 8.24 20 11 20ZM13.36 12.64C14.66 13.94 14.66 16.06 13.36 17.36C12.06 18.66 9.94 18.66 8.64 17.36L13.36 12.64Z" fill="#FEA401"/>
</svg>
