<svg width="24" height="12" viewBox="0 0 24 12" fill="none" xmlns="http://www.w3.org/2000/svg">
<path d="M7.4 1H4.6C4.44087 1 4.28826 1.06321 4.17574 1.17574C4.06321 1.28826 4 1.44087 4 1.6V10.4C4 10.4788 4.01552 10.5568 4.04567 10.6296C4.07583 10.7024 4.12002 10.7685 4.17574 10.8243C4.23145 10.88 4.29759 10.9242 4.37039 10.9543C4.44319 10.9845 4.52121 11 4.6 11H7.4C7.47879 11 7.55681 10.9845 7.62961 10.9543C7.70241 10.9242 7.76855 10.88 7.82426 10.8243C7.87998 10.7685 7.92417 10.7024 7.95433 10.6296C7.98448 10.5568 8 10.4788 8 10.4V1.6C8 1.44087 7.93679 1.28826 7.82426 1.17574C7.71174 1.06321 7.55913 1 7.4 1V1Z" stroke="#FEA401" stroke-width="1.5" stroke-linecap="round" stroke-linejoin="round"/>
<path d="M19.4 1H16.6C16.4409 1 16.2883 1.06321 16.1757 1.17574C16.0632 1.28826 16 1.44087 16 1.6V10.4C16 10.4788 16.0155 10.5568 16.0457 10.6296C16.0758 10.7024 16.12 10.7685 16.1757 10.8243C16.2315 10.88 16.2976 10.9242 16.3704 10.9543C16.4432 10.9845 16.5212 11 16.6 11H19.4C19.4788 11 19.5568 10.9845 19.6296 10.9543C19.7024 10.9242 19.7685 10.88 19.8243 10.8243C19.88 10.7685 19.9242 10.7024 19.9543 10.6296C19.9845 10.5568 20 10.4788 20 10.4V1.6C20 1.44087 19.9368 1.28826 19.8243 1.17574C19.7117 1.06321 19.5591 1 19.4 1V1Z" stroke="#FEA401" stroke-width="1.5" stroke-linecap="round" stroke-linejoin="round"/>
<path d="M1 8.4V3.6C1 3.44087 1.06321 3.28826 1.17574 3.17574C1.28826 3.06321 1.44087 3 1.6 3H3.4C3.55913 3 3.71174 3.06321 3.82426 3.17574C3.93679 3.28826 4 3.44087 4 3.6V8.4C4 8.55913 3.93679 8.71174 3.82426 8.82426C3.71174 8.93679 3.55913 9 3.4 9H1.6C1.44087 9 1.28826 8.93679 1.17574 8.82426C1.06321 8.71174 1 8.55913 1 8.4V8.4Z" stroke="#FEA401" stroke-width="1.5" stroke-linecap="round" stroke-linejoin="round"/>
<path d="M23 8.4V3.6C23 3.44087 22.9368 3.28826 22.8243 3.17574C22.7117 3.06321 22.5591 3 22.4 3H20.6C20.4409 3 20.2883 3.06321 20.1757 3.17574C20.0632 3.28826 20 3.44087 20 3.6V8.4C20 8.55913 20.0632 8.71174 20.1757 8.82426C20.2883 8.93679 20.4409 9 20.6 9H22.4C22.5591 9 22.7117 8.93679 22.8243 8.82426C22.9368 8.71174 23 8.55913 23 8.4V8.4Z" stroke="#FEA401" stroke-width="1.5" stroke-linecap="round" stroke-linejoin="round"/>
<path d="M8 6H16" stroke="#FEA401" stroke-width="1.5" stroke-linecap="round" stroke-linejoin="round"/>
</svg>
