<svg width="24" height="25" viewBox="0 0 24 25" fill="none" xmlns="http://www.w3.org/2000/svg">
<path d="M13.6087 25C13.3965 25 13.2084 24.7735 13.1466 24.4438L10.602 10.7075L8.25218 18.3208C8.175 18.5692 8.02262 18.7348 7.85089 18.7505C7.67052 18.7739 7.5152 18.6365 7.41971 18.4037L5.63327 14.0634H1.06875C0.802513 14.0635 0.586426 13.7135 0.586426 13.2823C0.586426 12.8511 0.802513 12.5011 1.06875 12.5011H5.89181C6.05292 12.5011 6.2034 12.6308 6.2931 12.8495L7.76122 16.4163L10.2837 8.24673C10.3715 7.96082 10.5557 7.77649 10.7563 7.81867C10.9531 7.84679 11.12 8.06555 11.1769 8.37175L13.5151 20.9956L16.0298 0.630216C16.0761 0.253711 16.2855 -0.0275141 16.5227 0.00214636C16.76 0.0193568 16.9549 0.313032 16.9819 0.695835L17.8703 13.6431L19.1803 12.5823C19.2478 12.5292 19.3221 12.5011 19.3964 12.5011H23.2548C23.521 12.5011 23.7371 12.8511 23.7371 13.2823C23.7371 13.7135 23.521 14.0635 23.2548 14.0635H19.5102L17.6822 15.5431C17.5414 15.6571 17.3764 15.6509 17.2356 15.5305C17.0967 15.4087 17.0051 15.1837 16.9868 14.9306L16.3646 5.86892L14.0814 24.372C14.0379 24.7251 13.8527 24.9829 13.6309 24.9985C13.6241 25 13.6164 25 13.6087 25Z" fill="#FEC630"/>
</svg>
