<svg width="221" height="179" viewBox="0 0 221 179" fill="none" xmlns="http://www.w3.org/2000/svg">
<path fill-rule="evenodd" clip-rule="evenodd" d="M46.3594 157.719C46.3594 120.272 76.7366 89.9148 114.209 89.9148C151.681 89.9148 182.059 120.272 182.059 157.719" fill="#FFF4E0"/>
<path d="M101.374 61.3093V21.9526" stroke="#412525" stroke-width="4" stroke-linecap="round"/>
<path d="M123.659 61.3093V21.9526" stroke="#412525" stroke-width="4" stroke-linecap="round"/>
<path d="M101.374 28.634V22.852C101.374 22.353 101.922 21.9487 102.598 21.9487H122.434C123.111 21.9487 123.659 22.353 123.659 22.852V28.634" stroke="#412525" stroke-width="10" stroke-linecap="round" stroke-linejoin="round"/>
<path fill-rule="evenodd" clip-rule="evenodd" d="M137.656 150.562H87.3777C83.8003 150.562 80.9004 147.664 80.9004 144.089V66.285C80.9004 62.71 83.8003 59.812 87.3777 59.812H137.656C141.233 59.812 144.134 62.71 144.134 66.285V144.089C144.134 147.664 141.233 150.562 137.656 150.562Z" fill="white"/>
<path fill-rule="evenodd" clip-rule="evenodd" d="M137.676 150.259H91.1326C87.5552 150.259 84.6553 147.361 84.6553 143.786V70.4809C84.6553 66.7428 87.7158 63.6843 91.4564 63.6843H137.352C140.93 63.6843 143.83 66.5823 143.83 70.1573V144.109C143.83 147.505 141.074 150.259 137.676 150.259Z" fill="#FEA401"/>
<path fill-rule="evenodd" clip-rule="evenodd" d="M133.612 146.922H91.4363C87.8592 146.922 84.959 144.024 84.959 140.449V70.4603C84.959 66.8856 87.8592 63.9873 91.4363 63.9873H133.612C137.19 63.9873 140.089 66.8856 140.089 70.4603V140.449C140.089 144.024 137.19 146.922 133.612 146.922Z" stroke="#412525" stroke-width="2" stroke-linecap="round"/>
<path fill-rule="evenodd" clip-rule="evenodd" d="M137.656 150.562H87.3777C83.8003 150.562 80.9004 147.664 80.9004 144.089V66.285C80.9004 62.71 83.8003 59.812 87.3777 59.812H137.656C141.233 59.812 144.134 62.71 144.134 66.285V144.089C144.134 147.664 141.233 150.562 137.656 150.562Z" stroke="#412525" stroke-width="2" stroke-linecap="round"/>
<path d="M106.866 55.9148H118.168" stroke="#412525" stroke-width="10" stroke-linecap="round"/>
<path d="M147.157 101.21V115.288" stroke="#412525" stroke-width="10" stroke-linecap="round"/>
<path fill-rule="evenodd" clip-rule="evenodd" d="M128.475 41.7363H141.288V37.5605H128.475V41.7363Z" fill="#05837F"/>
<path d="M84.959 87.3364H140.089" stroke="#412525" stroke-width="2" stroke-linecap="round"/>
<path fill-rule="evenodd" clip-rule="evenodd" d="M127.948 75.9893C127.948 77.8584 121.017 79.3734 112.468 79.3734C103.918 79.3734 96.9873 77.8584 96.9873 75.9893C96.9873 74.1205 103.918 72.6052 112.468 72.6052C121.017 72.6052 127.948 74.1205 127.948 75.9893Z" fill="white"/>
<path fill-rule="evenodd" clip-rule="evenodd" d="M134.066 94.6433C134.066 96.1823 132.81 97.4296 131.26 97.4296C129.711 97.4296 128.455 96.1823 128.455 94.6433C128.455 93.1044 129.711 91.8567 131.26 91.8567C132.81 91.8567 134.066 93.1044 134.066 94.6433Z" fill="white"/>
<path fill-rule="evenodd" clip-rule="evenodd" d="M91.8276 154.202C91.8276 156.212 90.197 157.842 88.1855 157.842C86.1736 157.842 84.543 156.212 84.543 154.202C84.543 152.192 86.1736 150.562 88.1855 150.562C90.197 150.562 91.8276 152.192 91.8276 154.202Z" fill="#412525"/>
<path fill-rule="evenodd" clip-rule="evenodd" d="M140.089 154.202C140.089 156.212 138.459 157.842 136.447 157.842C134.435 157.842 132.805 156.212 132.805 154.202C132.805 152.192 134.435 150.562 136.447 150.562C138.459 150.562 140.089 152.192 140.089 154.202Z" fill="#412525"/>
<path d="M25.9307 157.841H34.3804" stroke="#412525" stroke-width="2" stroke-linecap="round"/>
<path d="M39.1562 157.841H195.659" stroke="#412525" stroke-width="2" stroke-linecap="round"/>
<path fill-rule="evenodd" clip-rule="evenodd" d="M122.64 111.17C122.64 116.366 118.427 120.577 113.229 120.577C108.031 120.577 103.817 116.366 103.817 111.17C103.817 105.975 108.031 101.763 113.229 101.763C118.427 101.763 122.64 105.975 122.64 111.17Z" fill="white"/>
<path fill-rule="evenodd" clip-rule="evenodd" d="M122.64 111.17C122.64 116.366 118.427 120.577 113.229 120.577C108.031 120.577 103.817 116.366 103.817 111.17C103.817 105.975 108.031 101.763 113.229 101.763C118.427 101.763 122.64 105.975 122.64 111.17Z" stroke="#412525" stroke-width="2" stroke-linecap="round"/>
<path d="M109.056 110.779L112.137 113.858L117.403 108.483" stroke="#412525" stroke-width="2" stroke-linecap="round"/>
<path d="M68.6396 65.114C70.7325 63.5528 72.9267 61.9883 75.2142 60.4277" stroke="#412525" stroke-width="2" stroke-linecap="round"/>
<path d="M180.893 52.3174C169.682 63.9365 150.833 77.0666 128.052 88.2371C87.0045 108.364 48.7362 114.507 42.5767 101.958C38.9799 94.6289 47.1279 82.5469 62.7045 69.7539" stroke="#412525" stroke-width="2" stroke-linecap="round"/>
<path d="M88.0293 52.3154C89.0668 51.7046 90.1173 51.0964 91.1798 50.4915" stroke="#412525" stroke-width="2" stroke-linecap="round"/>
<path d="M155.104 54.2078C146.7 60.6268 135.419 67.5334 122.55 73.8438C92.5172 88.5701 65.2082 94.4721 61.5537 87.0261" stroke="#412525" stroke-width="2" stroke-linecap="round"/>
<path fill-rule="evenodd" clip-rule="evenodd" d="M190.368 44.5244C191.211 45.5072 186.507 50.9223 179.86 56.6197C173.214 62.3167 167.142 66.1385 166.299 65.1556C165.456 64.1727 170.16 58.7576 176.807 53.0606C183.453 47.3633 189.525 43.5418 190.368 44.5244Z" fill="black"/>
<path fill-rule="evenodd" clip-rule="evenodd" d="M182.593 53.6003L185.818 67.5433C185.977 68.2326 185.795 68.9566 185.329 69.4882L184.622 70.2943L178.19 56.3501L182.593 53.6003Z" fill="black"/>
<path fill-rule="evenodd" clip-rule="evenodd" d="M180.145 50.8701L166.923 45.3791C166.269 45.1076 165.525 45.1669 164.923 45.539L164.011 46.1021L176.702 54.7538L180.145 50.8701Z" fill="black"/>
<path fill-rule="evenodd" clip-rule="evenodd" d="M170.043 63.3333L170.19 66.0616C170.213 66.3989 169.976 66.6983 169.643 66.7551L168.944 66.8738C168.648 66.9241 168.355 66.7681 168.232 66.4943L167.327 64.2276L170.043 63.3333Z" fill="black"/>
<path fill-rule="evenodd" clip-rule="evenodd" d="M168.701 61.5767L165.974 61.3853C165.637 61.3577 165.333 61.5893 165.271 61.9215L165.141 62.6176C165.086 62.9131 165.238 63.2083 165.509 63.3357L167.762 64.2764L168.701 61.5767Z" fill="black"/>
<path fill-rule="evenodd" clip-rule="evenodd" d="M180.353 58.3661L180.76 58.9126C180.974 59.1997 180.915 59.6061 180.627 59.8202L179.551 60.6211C179.264 60.8352 178.857 60.7755 178.643 60.4881L178.236 59.9419C178.022 59.6545 178.081 59.248 178.369 59.0339L179.445 58.2331C179.732 58.0193 180.139 58.0787 180.353 58.3661Z" fill="black"/>
<path fill-rule="evenodd" clip-rule="evenodd" d="M174.748 51.8956L175.22 52.3876C175.468 52.6462 175.459 53.0568 175.2 53.3046L174.232 54.2327C173.973 54.4805 173.562 54.4718 173.314 54.2132L172.842 53.7211C172.594 53.4626 172.603 53.0516 172.862 52.8038L173.831 51.8761C174.089 51.6283 174.5 51.637 174.748 51.8956Z" fill="black"/>
</svg>
