<svg width="169" height="135" viewBox="0 0 169 135" fill="none" xmlns="http://www.w3.org/2000/svg">
<path d="M168.406 118.636H0.62915V118.727H168.406V118.636Z" fill="#E0E0E0"/>
<path d="M144.823 123.368H135.297V123.459H144.823V123.368Z" fill="#E0E0E0"/>
<path d="M132.837 123.412H124.324V123.502H132.837V123.412Z" fill="#E0E0E0"/>
<path d="M93.4501 121.314H81.991V121.404H93.4501V121.314Z" fill="#E0E0E0"/>
<path d="M115.059 124.122H99.1338V124.213H115.059V124.122Z" fill="#E0E0E0"/>
<path d="M48.5595 121.209H33.1409V121.299H48.5595V121.209Z" fill="#E0E0E0"/>
<path d="M55.6596 121.209H50.4216V121.299H55.6596V121.209Z" fill="#E0E0E0"/>
<path d="M35.0802 122.839H21.5876V122.93H35.0802V122.839Z" fill="#E0E0E0"/>
<path d="M80.1551 102.475H15.3631C14.8555 102.474 14.369 102.255 14.0104 101.868C13.6518 101.48 13.4504 100.954 13.4504 100.406V2.05095C13.4549 1.50597 13.6582 0.984881 14.0163 0.600869C14.3745 0.216856 14.8584 0.000933574 15.3631 0H80.1551C80.6632 0 81.1506 0.21799 81.5099 0.606015C81.8692 0.99404 82.0711 1.52031 82.0711 2.06906V100.406C82.0711 100.955 81.8692 101.481 81.5099 101.869C81.1506 102.257 80.6632 102.475 80.1551 102.475ZM15.3631 0.0724719C14.8778 0.0734317 14.4126 0.2823 14.0698 0.653232C13.7269 1.02416 13.5343 1.52685 13.5343 2.05095V100.406C13.5343 100.93 13.7269 101.433 14.0698 101.803C14.4126 102.174 14.8778 102.383 15.3631 102.384H80.1551C80.6407 102.383 81.1062 102.175 81.4496 101.804C81.793 101.433 81.9863 100.93 81.9872 100.406V2.05095C81.9863 1.52652 81.793 1.02384 81.4496 0.653011C81.1062 0.282183 80.6407 0.0734297 80.1551 0.0724719H15.3631Z" fill="#E0E0E0"/>
<path d="M152.739 102.475H87.9436C87.4357 102.474 86.9489 102.256 86.5898 101.868C86.2306 101.48 86.0285 100.954 86.0276 100.406V2.05095C86.0329 1.50564 86.237 0.984554 86.5956 0.600642C86.9543 0.216729 87.4386 0.000923393 87.9436 0H152.739C153.243 0.00188589 153.726 0.21823 154.084 0.60214C154.441 0.986051 154.644 1.50659 154.648 2.05095V100.406C154.648 100.953 154.447 101.478 154.089 101.866C153.732 102.254 153.246 102.473 152.739 102.475ZM87.9436 0.0724719C87.458 0.0734297 86.9925 0.282183 86.6491 0.653011C86.3057 1.02384 86.1124 1.52652 86.1115 2.05095V100.406C86.1124 100.93 86.3057 101.433 86.6491 101.804C86.9925 102.175 87.458 102.383 87.9436 102.384H152.739C153.225 102.383 153.69 102.175 154.033 101.804C154.377 101.433 154.57 100.93 154.571 100.406V2.05095C154.57 1.52652 154.377 1.02384 154.033 0.653011C153.69 0.282183 153.225 0.0734297 152.739 0.0724719H87.9436Z" fill="#E0E0E0"/>
<path d="M110.811 8.79443H24.5742V55.7415H110.811V8.79443Z" fill="#E0E0E0"/>
<path d="M111.935 8.79443H25.6982V55.7415H111.935V8.79443Z" fill="#F0F0F0"/>
<path d="M109.919 53.5347V10.9939L27.7184 10.9939V53.5347L109.919 53.5347Z" fill="#F5F5F5"/>
<path d="M33.8049 53.5384L56.0991 10.9976H66.5449L44.2541 53.5384H33.8049Z" fill="white"/>
<path d="M47.761 53.5384L70.0551 10.9976H80.5009L58.2101 53.5384H47.761Z" fill="white"/>
<path d="M76.7998 53.5384L99.0906 10.9976H103.392L81.1016 53.5384H76.7998Z" fill="white"/>
<path d="M83.1584 53.5347V10.9939H80.1183V53.5347H83.1584Z" fill="#E0E0E0"/>
<path d="M55.2737 53.5347V10.9939H52.2336V53.5347H55.2737Z" fill="#E0E0E0"/>
<path d="M84.2256 54.9372V9.35986H81.1855V54.9372H84.2256Z" fill="#F5F5F5"/>
<path d="M56.3408 54.9372V9.35986H53.3007V54.9372H56.3408Z" fill="#F5F5F5"/>
<path d="M109.919 53.5347V10.9939H109.07V53.5347H109.919Z" fill="#E0E0E0"/>
<path d="M132.112 69.6016C132.112 69.6016 125.958 58.1474 134.495 49.0305C134.495 49.0305 136.723 50.5959 136.689 52.7048C136.656 54.8137 134.304 55.3464 134.807 57.1075C135.31 58.8685 137.535 60.5934 136.079 62.0464C134.622 63.4995 136.31 64.7967 136.213 66.5759C136.116 68.3551 132.112 69.6016 132.112 69.6016Z" fill="#E0E0E0"/>
<path d="M133.079 71.4753C133.079 71.4753 135.572 58.5102 124.808 52.7632C124.808 52.7632 123.153 55.0098 123.801 56.9991C124.449 58.9885 126.838 58.695 126.871 60.5358C126.905 62.3765 125.301 64.7717 127.11 65.6559C128.918 66.54 127.69 68.3446 128.304 70.0042C128.918 71.6638 133.079 71.4753 133.079 71.4753Z" fill="#EBEBEB"/>
<path d="M127.599 68.1812C127.599 68.1812 127.706 73.5875 131.847 73.5875C135.988 73.5875 136.098 68.1812 136.098 68.1812H127.599Z" fill="#F5F5F5"/>
<path d="M98.8657 69.377C98.8657 69.377 99.0067 73.5875 104.453 73.5875C109.899 73.5875 110.043 69.377 110.043 69.377H98.8657Z" fill="#EBEBEB"/>
<path d="M111.506 70.4207C111.506 70.4207 111.613 73.5877 115.707 73.5877C119.801 73.5877 119.905 70.4207 119.905 70.4207H111.506Z" fill="#EBEBEB"/>
<path d="M102.701 76.2146H93.5339V115.918H102.701V76.2146Z" fill="#EBEBEB"/>
<path d="M140.497 115.915H95.2917V118.636H140.497V115.915Z" fill="#EBEBEB"/>
<path d="M102.701 115.915H142.26V76.211H102.701V115.915Z" fill="#F5F5F5"/>
<path d="M106.305 94.1333H138.656V80.0521H106.305V94.1333Z" fill="#EBEBEB"/>
<path d="M106.305 110.78H138.656V96.6988H106.305V110.78Z" fill="#EBEBEB"/>
<path d="M126.126 81.5959H118.848C118.611 81.5959 118.383 81.4945 118.215 81.3138C118.047 81.1332 117.953 80.888 117.952 80.632C117.953 80.3757 118.047 80.1302 118.215 79.949C118.383 79.7677 118.61 79.6655 118.848 79.6646H126.126C126.363 79.6655 126.59 79.7677 126.758 79.949C126.926 80.1302 127.021 80.3757 127.022 80.632C127.021 80.888 126.926 81.1332 126.758 81.3138C126.59 81.4945 126.363 81.5959 126.126 81.5959Z" fill="#F5F5F5"/>
<path d="M126.126 98.2424H118.848C118.611 98.2424 118.383 98.141 118.215 97.9603C118.047 97.7797 117.953 97.5345 117.952 97.2785C117.953 97.0222 118.047 96.7767 118.215 96.5955C118.383 96.4142 118.61 96.312 118.848 96.311H126.126C126.363 96.312 126.59 96.4142 126.758 96.5955C126.926 96.7767 127.021 97.0222 127.022 97.2785C127.021 97.5345 126.926 97.7797 126.758 97.9603C126.59 98.141 126.363 98.2424 126.126 98.2424Z" fill="#F5F5F5"/>
<path d="M143.478 73.5876H102.698V76.2147H143.478V73.5876Z" fill="#EBEBEB"/>
<path d="M92.2486 76.2112H102.698V73.5841H92.2486V76.2112Z" fill="#E0E0E0"/>
<path d="M141.434 15.4036H121.576V40.1091H141.434V15.4036Z" fill="#EBEBEB"/>
<path d="M143.689 15.4036H122.17V40.1091H143.689V15.4036Z" fill="#F5F5F5"/>
<path d="M141.887 38.1598V17.3496H123.972V38.1598H141.887Z" fill="white"/>
<path d="M137.545 31.4093V24.1005C137.545 23.1579 136.837 22.3938 135.964 22.3938H129.894C129.021 22.3938 128.314 23.1579 128.314 24.1005V31.4093C128.314 32.3518 129.021 33.116 129.894 33.116H135.964C136.837 33.116 137.545 32.3518 137.545 31.4093Z" fill="#F5F5F5"/>
<path d="M90.9232 95.6335H88.6179V118.636H90.9232V95.6335Z" fill="#E0E0E0"/>
<path opacity="0.5" d="M90.9229 95.6335H89.7686V118.636H90.9229V95.6335Z" fill="#F5F5F5"/>
<path d="M80.8263 102.076H79.2424C79.4159 101.917 79.5552 101.72 79.6508 101.497C79.7464 101.274 79.796 101.032 79.7961 100.786H61.0286C61.0293 101.032 61.0795 101.275 61.1757 101.497C61.2719 101.72 61.4118 101.918 61.5856 102.076H60.0219C59.4613 102.076 58.9236 102.317 58.5271 102.745C58.1307 103.173 57.908 103.754 57.908 104.359V111.015C57.908 111.621 58.1307 112.202 58.5271 112.63C58.9236 113.058 59.4613 113.298 60.0219 113.298H80.8263C81.3869 113.298 81.9246 113.058 82.3211 112.63C82.7175 112.202 82.9402 111.621 82.9402 111.015V104.359C82.9402 103.754 82.7175 103.173 82.3211 102.745C81.9246 102.317 81.3869 102.076 80.8263 102.076Z" fill="#F5F5F5"/>
<path d="M63.468 106.993H50.8478C50.062 106.993 49.425 107.681 49.425 108.53V111.762C49.425 112.61 50.062 113.298 50.8478 113.298H63.468C64.2537 113.298 64.8907 112.61 64.8907 111.762V108.53C64.8907 107.681 64.2537 106.993 63.468 106.993Z" fill="#EBEBEB"/>
<path d="M64.4142 105.602H49.9015C49.6384 105.602 49.425 105.832 49.425 106.117V106.704C49.425 106.988 49.6384 107.218 49.9015 107.218H64.4142C64.6774 107.218 64.8907 106.988 64.8907 106.704V106.117C64.8907 105.832 64.6774 105.602 64.4142 105.602Z" fill="#E0E0E0"/>
<path d="M66.3169 85.3606C66.3169 85.3606 66.535 92.9701 74.7896 92.9701C83.0442 92.9701 83.2623 85.3606 83.2623 85.3606H66.3169Z" fill="#EBEBEB"/>
<path d="M26.5036 95.6335H36.7983V92.9738H26.5036V95.6335Z" fill="#E0E0E0"/>
<path d="M98.9129 92.9739H36.802V95.6336H98.9129V92.9739Z" fill="#F5F5F5"/>
<path d="M26.5036 115.958H36.7983V113.299H26.5036V115.958Z" fill="#E0E0E0"/>
<path d="M28.8123 95.6335H26.5071V118.636H28.8123V95.6335Z" fill="#E0E0E0"/>
<path opacity="0.5" d="M28.8123 95.6335H27.658V118.636H28.8123V95.6335Z" fill="#F5F5F5"/>
<path d="M37.9527 95.6335H35.6475V118.636H37.9527V95.6335Z" fill="#F5F5F5"/>
<path d="M36.8018 95.6335H35.6475V118.636H36.8018V95.6335Z" fill="#E0E0E0"/>
<path d="M98.9093 95.6335H96.604V118.636H98.9093V95.6335Z" fill="#F5F5F5"/>
<path d="M97.7583 95.6335H96.604V118.636H97.7583V95.6335Z" fill="#E0E0E0"/>
<path d="M98.9129 113.298H36.802V115.958H98.9129V113.298Z" fill="#F5F5F5"/>
<path d="M53.3644 91.4048H40.8416V92.9738H53.3644V91.4048Z" fill="#E0E0E0"/>
<path d="M53.3645 92.9702H57.8508V91.4012H53.3645V92.9702Z" fill="#EBEBEB"/>
<path d="M84.5175 135C120.449 135 149.578 133.163 149.578 130.898C149.578 128.633 120.449 126.796 84.5175 126.796C48.5856 126.796 19.457 128.633 19.457 130.898C19.457 133.163 48.5856 135 84.5175 135Z" fill="#F5F5F5"/>
<path d="M73.7355 34.6776C73.759 38.9716 70.9102 38.9281 70.9672 37.5946C71.0243 36.2611 70.3196 33.0688 70.9672 33.3768C71.6148 33.6848 73.7255 32.7789 73.7355 34.6776Z" fill="#263238"/>
<path d="M71.9438 42.4538C72.3364 42.4211 73.125 42.8161 73.1954 43.9358C73.2138 44.2611 73.3019 44.5774 73.4527 44.8597C73.6035 45.1421 73.8129 45.3827 74.0645 45.5628C74.0645 45.5628 72.7592 45.7331 71.9036 45.0011C71.2056 44.4105 70.8969 43.1169 71.2627 42.827C71.4631 42.6525 71.6951 42.5254 71.9438 42.4538Z" fill="#263238"/>
<path d="M71.4302 39.4026C72.1013 40.044 72.7153 41.7398 71.202 42.5442C69.6886 43.3487 67.3096 41.4753 67.3096 41.4753L69.9235 40.1672L71.4302 39.4026Z" fill="#263238"/>
<path d="M72.1756 42.6095C72.1387 42.3747 72.0779 42.145 71.9944 41.9246C71.9872 41.9036 71.9758 41.8847 71.9608 41.8692C71.9459 41.8537 71.928 41.842 71.9083 41.835C71.8886 41.8281 71.8677 41.826 71.8472 41.8289C71.8267 41.8319 71.807 41.8398 71.7897 41.8521L70.8603 42.5225C70.8416 42.5361 70.8263 42.5544 70.8157 42.5759C70.8051 42.5974 70.7996 42.6214 70.7996 42.6457C70.7996 42.67 70.8051 42.694 70.8157 42.7155C70.8263 42.737 70.8416 42.7553 70.8603 42.7689C70.994 42.8748 71.138 42.9647 71.2898 43.037C71.5079 43.1313 71.9609 42.8631 72.1152 42.7472C72.1364 42.7328 72.1534 42.7123 72.1641 42.6879C72.1748 42.6635 72.1788 42.6362 72.1756 42.6095Z" fill="#412525"/>
<path opacity="0.3" d="M72.1756 42.6095C72.1387 42.3747 72.0779 42.145 71.9944 41.9246C71.9872 41.9036 71.9758 41.8847 71.9608 41.8692C71.9459 41.8537 71.928 41.842 71.9083 41.835C71.8886 41.8281 71.8677 41.826 71.8472 41.8289C71.8267 41.8319 71.807 41.8398 71.7897 41.8521L70.8603 42.5225C70.8416 42.5361 70.8263 42.5544 70.8157 42.5759C70.8051 42.5974 70.7996 42.6214 70.7996 42.6457C70.7996 42.67 70.8051 42.694 70.8157 42.7155C70.8263 42.737 70.8416 42.7553 70.8603 42.7689C70.994 42.8748 71.138 42.9647 71.2898 43.037C71.5079 43.1313 71.9609 42.8631 72.1152 42.7472C72.1364 42.7328 72.1534 42.7123 72.1641 42.6879C72.1748 42.6635 72.1788 42.6362 72.1756 42.6095Z" fill="black"/>
<path d="M62.1726 40.8304C61.8002 40.6963 60.9479 40.8775 60.6324 41.9501C60.5428 42.2613 60.3878 42.5459 60.1794 42.7816C59.971 43.0174 59.7149 43.1978 59.4312 43.3089C59.4312 43.3089 60.6626 43.809 61.6559 43.3089C62.4612 42.914 63.0316 41.7327 62.7531 41.3558C62.597 41.1375 62.399 40.9582 62.1726 40.8304Z" fill="#263238"/>
<path d="M65.8703 33.4563C64.5113 33.8549 62.6826 35.5942 63.4946 37.7285C62.6927 38.3191 61.6659 40.0186 62.8671 41.1057C64.159 42.2761 67.3367 40.6346 67.3367 40.6346L67.3602 40.0766L67.7394 35.924L65.8703 33.4563Z" fill="#263238"/>
<path d="M61.9138 40.9247C62.004 40.7053 62.1165 40.4975 62.2493 40.3051C62.2626 40.2876 62.2792 40.2736 62.2981 40.2639C62.3169 40.2543 62.3375 40.2493 62.3584 40.2493C62.3793 40.2493 62.3999 40.2543 62.4187 40.2639C62.4376 40.2736 62.4542 40.2876 62.4675 40.3051L63.2191 41.1928C63.2343 41.2109 63.2452 41.2326 63.251 41.2562C63.2567 41.2798 63.2572 41.3045 63.2522 41.3283C63.2473 41.3521 63.2371 41.3743 63.2226 41.393C63.2081 41.4116 63.1896 41.4263 63.1688 41.4356C63.0163 41.5028 62.8577 41.5526 62.6956 41.5842C62.4607 41.6204 62.0984 41.2472 61.9574 41.095C61.9346 41.075 61.9182 41.0479 61.9104 41.0174C61.9026 40.9869 61.9037 40.9545 61.9138 40.9247Z" fill="#412525"/>
<path opacity="0.3" d="M61.9138 40.9247C62.004 40.7053 62.1165 40.4975 62.2493 40.3051C62.2626 40.2876 62.2792 40.2736 62.2981 40.2639C62.3169 40.2543 62.3375 40.2493 62.3584 40.2493C62.3793 40.2493 62.3999 40.2543 62.4187 40.2639C62.4376 40.2736 62.4542 40.2876 62.4675 40.3051L63.2191 41.1928C63.2343 41.2109 63.2452 41.2326 63.251 41.2562C63.2567 41.2798 63.2572 41.3045 63.2522 41.3283C63.2473 41.3521 63.2371 41.3743 63.2226 41.393C63.2081 41.4116 63.1896 41.4263 63.1688 41.4356C63.0163 41.5028 62.8577 41.5526 62.6956 41.5842C62.4607 41.6204 62.0984 41.2472 61.9574 41.095C61.9346 41.075 61.9182 41.0479 61.9104 41.0174C61.9026 40.9869 61.9037 40.9545 61.9138 40.9247Z" fill="black"/>
<path d="M74.1414 48.5811C74.7823 49.1173 75.4836 49.6899 76.1882 50.2117C76.8929 50.7335 77.6009 51.2589 78.3291 51.7408C79.0572 52.2227 79.7954 52.6721 80.5404 53.0997L81.1008 53.4077L81.6712 53.6939C81.8591 53.7918 82.0504 53.8787 82.245 53.9584L82.5302 54.0853C82.6275 54.1251 82.7315 54.1759 82.7919 54.194C83.1427 54.31 83.5019 54.3937 83.8657 54.444C84.2617 54.5056 84.6777 54.5491 85.1005 54.5817C85.9428 54.6397 86.8085 54.665 87.6776 54.6687C88.5467 54.6723 89.4258 54.6687 90.3016 54.6397C91.1774 54.6107 92.0633 54.5889 92.9357 54.56L93.1001 55.984C91.3377 56.3678 89.558 56.6521 87.7682 56.8356C86.8656 56.9225 85.9596 56.9878 85.0334 56.995C84.5704 56.995 84.1006 56.995 83.6174 56.9479C83.0978 56.9148 82.5828 56.8238 82.0806 56.6761C81.9262 56.6326 81.8289 56.5892 81.7148 56.5493L81.3793 56.4225C81.1544 56.3428 80.933 56.2558 80.7081 56.158L80.0572 55.8753L79.4196 55.5709C78.5772 55.1606 77.7561 54.7009 76.96 54.194C76.1681 53.6903 75.3896 53.1685 74.638 52.6105C73.8863 52.0524 73.1616 51.4763 72.4233 50.7987L74.1414 48.5811Z" fill="#E4897B"/>
<path d="M70.6587 46.9544C71.4943 46.2514 74.9337 48.5524 75.9806 49.5127L75.2189 54.4878C75.2189 54.4878 70.2695 52.2485 69.9709 50.7193C69.6621 49.1213 70.0279 47.4907 70.6587 46.9544Z" fill="#263238"/>
<path d="M92.57 54.6835L94.6437 52.9478L94.8082 55.6328C94.8082 55.6328 93.3787 56.5895 92.4358 55.9952L92.57 54.6835Z" fill="#E4897B"/>
<path d="M96.4929 52.6831L97.5533 53.9586L94.795 55.6327L94.6306 52.9476L96.4929 52.6831Z" fill="#E4897B"/>
<path d="M57.0957 127.358L59.7097 127.568L60.6626 121.071L58.052 120.861L57.0957 127.358Z" fill="#E4897B"/>
<path d="M38.6033 118.277L40.8213 119.784L44.7707 114.726L42.5527 113.215L38.6033 118.277Z" fill="#E4897B"/>
<path d="M41.5227 119.245L39.4456 116.987C39.4102 116.948 39.3626 116.924 39.3119 116.92C39.2612 116.916 39.2109 116.932 39.1705 116.966L37.2813 118.491C37.2352 118.531 37.1975 118.581 37.1706 118.638C37.1436 118.695 37.128 118.758 37.1249 118.822C37.1217 118.886 37.131 118.95 37.1522 119.009C37.1734 119.069 37.2059 119.123 37.2478 119.169C37.9826 119.94 38.3752 120.274 39.2879 121.267C39.8483 121.879 40.61 122.832 41.3851 123.676C42.1603 124.521 42.9723 123.734 42.7274 123.314C41.5932 121.404 41.7979 120.691 41.7207 119.719C41.7093 119.541 41.6391 119.372 41.5227 119.245Z" fill="#263238"/>
<path d="M59.8842 127.162H56.938C56.8862 127.162 56.836 127.182 56.7962 127.218C56.7563 127.253 56.7294 127.303 56.7199 127.358L56.2535 129.873C56.2427 129.936 56.2455 130.002 56.2616 130.064C56.2777 130.127 56.3067 130.184 56.3465 130.233C56.3862 130.281 56.4357 130.32 56.4911 130.344C56.5465 130.369 56.6064 130.38 56.6662 130.376C57.693 130.358 58.193 130.293 59.4883 130.293C60.2835 130.293 62.5082 130.38 63.6189 130.38C64.7296 130.38 64.8403 129.206 64.3873 129.101C62.3572 128.623 60.9882 127.967 60.3271 127.336C60.205 127.22 60.0468 127.158 59.8842 127.162Z" fill="#263238"/>
<path d="M60.6624 121.071L60.1322 124.68L57.5552 124.212L58.0484 120.864L60.6624 121.071Z" fill="#CE6F64"/>
<path d="M42.5524 113.219L44.7704 114.726L43.1363 116.821L40.8679 115.375L42.5524 113.219Z" fill="#CE6F64"/>
<path d="M59.0823 62.0103L69.5314 64.2098C74.9305 48.4219 73.756 47.9037 73.756 47.9037C72.9967 47.4531 72.2122 47.0537 71.4071 46.7079L71.2662 46.6499C70.5951 46.3854 70.4609 46.3455 69.5683 46.0629C68.0315 45.6679 66.5987 45.3382 64.8236 45.0664L64.488 45.0157C64.1525 44.9722 63.8471 44.936 63.5384 44.9034C63.3304 44.878 63.1223 44.8635 62.9244 44.849L62.2533 44.8092C61.1057 44.7476 60.2836 44.7657 60.2836 44.7657C60.6023 54.6254 60.0856 57.4554 59.0823 62.0103Z" fill="#263238"/>
<path d="M66.3334 39.4026C66.3334 41.1129 66.0885 44.1966 64.8201 45.0735C64.8201 45.0735 64.9375 46.8345 67.7729 47.4288C70.8936 48.0847 69.5648 46.07 69.5648 46.07C67.9441 45.2728 68.2226 43.9176 68.7595 42.7L66.3334 39.4026Z" fill="#E4897B"/>
<path d="M67.3233 40.7473L68.7595 42.7004C68.6336 42.9827 68.5304 43.2761 68.4507 43.5773C67.8166 43.3382 67.0616 42.3815 67.1085 41.6315C67.1299 41.3251 67.2027 41.0256 67.3233 40.7473Z" fill="#CE6F64"/>
<path d="M66.1821 35.4749C65.8465 38.2614 65.6418 39.4319 66.6753 41.1168C68.2289 43.6533 71.4704 43.4903 72.5744 40.8704C73.581 38.5115 73.9568 34.348 71.6583 32.7355C71.1537 32.3756 70.5722 32.161 69.9692 32.1121C69.3661 32.0632 68.7615 32.1816 68.2128 32.4561C67.664 32.7306 67.1894 33.152 66.834 33.6804C66.4786 34.2088 66.2541 34.8265 66.1821 35.4749Z" fill="#E4897B"/>
<path d="M74.5812 31.0613C74.6281 31.5032 74.5974 31.9506 74.4906 32.3802C74.4662 32.2345 74.4337 32.0905 74.3933 31.949C73.4739 28.6661 69.3332 29.4488 68.0849 30.862C66.0716 30.2387 64.1556 30.7351 64.4106 33.3985C64.4425 34.0846 64.6711 34.7431 65.0649 35.2827C64.7529 36.2176 65.0649 37.7069 66.0951 37.7504C67.5447 37.812 68.9204 35.7393 69.4741 34.6015C70.4808 34.7863 71.9304 34.9639 73.031 34.674C73.2155 34.7936 73.3665 34.8769 73.3665 34.8769C74.5376 34.1993 75.4302 33.5434 74.5812 31.0613Z" fill="#263238"/>
<path d="M65.2898 37.3771C65.2488 37.9178 65.4067 38.4542 65.7294 38.87C66.1656 39.4172 66.7361 39.0947 66.9408 38.4461C67.1119 37.859 67.0884 36.8698 66.5045 36.5618C66.3759 36.4965 66.2342 36.467 66.0923 36.4759C65.9504 36.4849 65.8128 36.532 65.6921 36.6131C65.5713 36.6941 65.4713 36.8064 65.4011 36.9399C65.3308 37.0733 65.2926 37.2236 65.2898 37.3771Z" fill="#E4897B"/>
<path d="M69.3736 64.2099C69.3736 64.2099 69.4138 86.6109 67.7159 95.0466C65.9509 103.823 60.7599 123.789 60.7599 123.789L57.0017 123.263C57.0017 123.263 59.9445 103.095 61.1961 94.3726C62.5618 84.868 61.7263 62.6011 61.7263 62.6011L69.3736 64.2099Z" fill="#412525"/>
<path opacity="0.3" d="M69.3736 64.2099C69.3736 64.2099 69.4138 86.6109 67.7159 95.0466C65.9509 103.823 60.7599 123.789 60.7599 123.789L57.0017 123.263C57.0017 123.263 59.9445 103.095 61.1961 94.3726C62.5618 84.868 61.7263 62.6011 61.7263 62.6011L69.3736 64.2099Z" fill="black"/>
<path d="M61.4008 124.14L56.3574 123.437L56.5722 121.509L62.2967 122.234L61.4008 124.14Z" fill="#263238"/>
<path d="M66.7732 63.63C66.7732 63.63 61.146 82.1429 58.3508 92.807C55.4046 104.058 44.1099 116.502 44.1099 116.502L40.8718 114.48C40.8718 114.48 48.5896 102.667 51.425 92.1693C57.1999 70.859 54.8275 66.3441 59.0823 62.0103L66.7732 63.63Z" fill="#412525"/>
<path opacity="0.3" d="M66.7732 63.63C66.7732 63.63 61.146 82.1429 58.3508 92.807C55.4046 104.058 44.1099 116.502 44.1099 116.502L40.8718 114.48C40.8718 114.48 48.5896 102.667 51.425 92.1693C57.1999 70.859 54.8275 66.3441 59.0823 62.0103L66.7732 63.63Z" fill="black"/>
<path d="M44.6365 117.063L40.1367 114.258L41.2575 112.526L46.2539 115.501L44.6365 117.063Z" fill="#263238"/>
<path d="M69.9071 37.0584C69.8669 37.2831 69.9441 37.486 70.0816 37.515C70.2192 37.544 70.3601 37.3845 70.4172 37.1526C70.4742 36.9207 70.3803 36.7214 70.2427 36.6924C70.1051 36.6634 69.9474 36.8338 69.9071 37.0584Z" fill="#263238"/>
<path d="M72.2524 37.5514C72.2121 37.776 72.2893 37.9826 72.4268 38.0116C72.5644 38.0406 72.7054 37.8811 72.7456 37.6492C72.7859 37.4173 72.7087 37.218 72.5711 37.1926C72.4336 37.1673 72.2926 37.3231 72.2524 37.5514Z" fill="#263238"/>
<path d="M72.5107 37.196L73.0376 37.1489C73.0376 37.1489 72.7054 37.5149 72.5107 37.196Z" fill="#263238"/>
<path d="M71.5648 37.8081C71.6574 38.3575 71.82 38.8904 72.048 39.3916C71.9277 39.4524 71.7965 39.4839 71.6638 39.4839C71.531 39.4839 71.3998 39.4524 71.2795 39.3916L71.5648 37.8081Z" fill="#DE5753"/>
<path d="M70.4004 40.1165C70.12 40.0669 69.8548 39.9448 69.6275 39.7605C69.4002 39.5763 69.2175 39.3354 69.0951 39.0584C69.0919 39.0503 69.0902 39.0416 69.0901 39.0328C69.09 39.024 69.0916 39.0153 69.0947 39.0072C69.0979 38.999 69.1025 38.9917 69.1083 38.9855C69.1142 38.9794 69.1211 38.9746 69.1287 38.9714C69.1439 38.9653 69.1606 38.9656 69.1756 38.9723C69.1906 38.9791 69.2026 38.9917 69.2092 39.0077C69.3264 39.2622 69.4975 39.4834 69.7085 39.6534C69.9195 39.8233 70.1646 39.9373 70.4239 39.986C70.4319 39.9873 70.4396 39.9904 70.4465 39.9949C70.4533 39.9995 70.4593 40.0055 70.464 40.0126C70.4687 40.0197 70.472 40.0277 70.4738 40.0362C70.4755 40.0447 70.4757 40.0535 70.4743 40.0621C70.471 40.0798 70.4615 40.0954 70.4477 40.1056C70.4338 40.1158 70.4169 40.1197 70.4004 40.1165Z" fill="#263238"/>
<path d="M69.3734 36.0945C69.3486 36.0943 69.3244 36.086 69.304 36.0708C69.2835 36.0556 69.2678 36.0342 69.2588 36.0092C69.2497 35.9843 69.2478 35.9569 69.2533 35.9308C69.2588 35.9047 69.2714 35.8809 69.2895 35.8626C69.4334 35.7169 69.6074 35.6103 69.7971 35.5517C69.9867 35.4931 70.1866 35.4842 70.3801 35.5256C70.4118 35.5357 70.4386 35.5588 70.4549 35.5899C70.4712 35.621 70.4756 35.6577 70.4673 35.6923C70.4587 35.7263 70.438 35.7552 70.4097 35.7728C70.3814 35.7905 70.3479 35.7954 70.3163 35.7865C70.1626 35.7571 70.0047 35.7666 69.8551 35.8144C69.7054 35.8622 69.5681 35.9469 69.4539 36.0619C69.4317 36.0831 69.403 36.0947 69.3734 36.0945Z" fill="#263238"/>
<path d="M73.5546 36.598C73.53 36.5983 73.5058 36.5905 73.4855 36.5756C73.4651 36.5607 73.4494 36.5394 73.4405 36.5146C73.3829 36.3577 73.2923 36.2173 73.1759 36.1048C73.0594 35.9922 72.9202 35.9104 72.7694 35.866C72.7533 35.863 72.7379 35.8565 72.7241 35.847C72.7103 35.8375 72.6984 35.8252 72.6891 35.8107C72.6797 35.7962 72.6731 35.7799 72.6696 35.7626C72.6661 35.7454 72.6658 35.7276 72.6687 35.7102C72.676 35.676 72.6947 35.6459 72.7214 35.6258C72.7481 35.6057 72.7807 35.597 72.813 35.6015C73.0044 35.6531 73.1816 35.7534 73.3299 35.8939C73.4781 36.0345 73.5931 36.2113 73.6653 36.4096C73.6719 36.4259 73.6754 36.4436 73.6756 36.4615C73.6757 36.4793 73.6726 36.497 73.6664 36.5136C73.6601 36.5301 73.6509 36.5452 73.6392 36.5578C73.6274 36.5704 73.6135 36.5804 73.5982 36.5871L73.5546 36.598Z" fill="#263238"/>
<path d="M70.1885 39.0437C70.0846 39.0442 69.9821 39.0185 69.8889 38.9689C69.7957 38.9192 69.7145 38.8468 69.6516 38.7575C69.4938 38.4917 69.3885 38.1936 69.3424 37.8818C69.2962 37.5701 69.3101 37.2514 69.3832 36.9457C69.5745 35.8006 70.2389 34.8694 70.8663 34.8694C70.9708 34.8707 71.0736 34.8975 71.1671 34.9477C71.2607 34.9979 71.3425 35.0702 71.4066 35.1593C71.5638 35.4253 71.6688 35.7234 71.715 36.0351C71.7612 36.3467 71.7476 36.6653 71.675 36.9711C71.4838 38.1161 70.816 39.0437 70.1885 39.0437ZM70.8596 34.9708C70.2724 34.9708 69.6416 35.8695 69.457 36.9711C69.3396 37.6958 69.4335 38.348 69.7087 38.6995C69.7646 38.7777 69.8362 38.8412 69.9182 38.8852C70.0002 38.9291 70.0903 38.9523 70.1818 38.9532C70.7724 38.9532 71.3999 38.0581 71.5844 36.9566H71.6247H71.5844C71.6556 36.6654 71.67 36.3613 71.6267 36.0638C71.5834 35.7663 71.4833 35.4817 71.3328 35.2281C71.2777 35.1504 71.2073 35.0869 71.1266 35.0424C71.0458 34.9979 70.9569 34.9734 70.8663 34.9708H70.8596Z" fill="#FAFAFA"/>
<path d="M72.796 39.4062C72.6875 39.4037 72.5809 39.3752 72.4839 39.3225C72.387 39.2698 72.3022 39.1944 72.2357 39.1018C72.085 38.8578 71.983 38.5827 71.9362 38.2938C71.8895 38.005 71.8989 37.7088 71.9639 37.4241C72.135 36.3587 72.7793 35.4963 73.4 35.4963C73.5088 35.4992 73.6156 35.5284 73.7126 35.5817C73.8096 35.635 73.8942 35.711 73.9604 35.8043C74.11 36.0481 74.2114 36.3227 74.2582 36.6107C74.3049 36.8988 74.2961 37.1942 74.2322 37.4784C74.0644 38.5474 73.4202 39.4062 72.796 39.4062ZM73.39 35.5869C72.8061 35.5869 72.2021 36.4167 72.0477 37.4422C71.9874 37.7139 71.9788 37.996 72.0227 38.2713C72.0665 38.5467 72.1618 38.8095 72.3028 39.0438C72.3618 39.126 72.4369 39.1929 72.5228 39.2399C72.6087 39.2869 72.7032 39.3128 72.7994 39.3156C73.3832 39.3156 73.9906 38.4894 74.1416 37.4639C74.2017 37.1924 74.2104 36.9106 74.1671 36.6354C74.1239 36.3602 74.0296 36.0972 73.8899 35.8623C73.8313 35.7795 73.7562 35.7118 73.6704 35.6642C73.5845 35.6166 73.4898 35.5902 73.3933 35.5869H73.39Z" fill="#FAFAFA"/>
<path d="M42.2943 120.56C41.9587 120.56 41.6064 120.002 41.4252 119.679C41.4186 119.669 41.415 119.656 41.415 119.643C41.415 119.63 41.4186 119.618 41.4252 119.607C41.4326 119.597 41.4424 119.588 41.4536 119.583C41.4647 119.578 41.4769 119.576 41.489 119.578C41.5963 119.603 42.5191 119.821 42.6366 120.161C42.6499 120.199 42.6535 120.24 42.647 120.279C42.6405 120.319 42.6241 120.356 42.5997 120.386C42.5666 120.441 42.5213 120.485 42.4678 120.516C42.4144 120.546 42.3547 120.561 42.2943 120.56ZM41.593 119.745C41.8514 120.165 42.103 120.415 42.2842 120.426C42.3245 120.426 42.3641 120.415 42.3994 120.394C42.4346 120.373 42.4643 120.343 42.4856 120.306C42.4969 120.293 42.5045 120.277 42.5075 120.26C42.5105 120.243 42.5087 120.225 42.5023 120.208C42.4419 120.027 41.9621 119.846 41.593 119.745Z" fill="#412525"/>
<path d="M41.7441 119.745C41.6424 119.746 41.5409 119.734 41.4421 119.709C41.432 119.705 41.4228 119.699 41.4152 119.69C41.4077 119.682 41.4019 119.672 41.3985 119.661C41.3906 119.641 41.3906 119.617 41.3985 119.596C41.4219 119.574 41.9353 119.027 42.3145 119.027H42.3414C42.3883 119.031 42.4341 119.045 42.4757 119.068C42.5173 119.092 42.5539 119.125 42.583 119.165C42.6172 119.204 42.6384 119.254 42.6433 119.307C42.6481 119.36 42.6364 119.413 42.6098 119.459C42.5024 119.654 42.0729 119.745 41.7441 119.745ZM41.5931 119.603C41.9085 119.643 42.4185 119.546 42.5226 119.382C42.5393 119.357 42.5528 119.317 42.5024 119.248C42.4849 119.222 42.4618 119.2 42.4349 119.185C42.4081 119.17 42.3783 119.162 42.3481 119.161C42.0602 119.221 41.7964 119.375 41.5931 119.603Z" fill="#412525"/>
<path d="M60.8472 127.659C60.5695 127.65 60.2931 127.614 60.0217 127.55C60.0088 127.547 59.997 127.54 59.988 127.53C59.979 127.519 59.9732 127.506 59.9714 127.492C59.9699 127.478 59.9723 127.464 59.9783 127.452C59.9843 127.44 59.9936 127.43 60.0049 127.423C60.1291 127.358 61.2062 126.778 61.5183 126.974C61.5467 126.993 61.5702 127.02 61.5866 127.051C61.603 127.083 61.6118 127.119 61.6122 127.155C61.6161 127.216 61.6062 127.277 61.5834 127.333C61.5606 127.39 61.5256 127.439 61.4814 127.477C61.2946 127.613 61.0714 127.676 60.8472 127.659ZM60.2331 127.463C60.8069 127.564 61.2398 127.539 61.4075 127.383C61.4361 127.356 61.4586 127.323 61.4731 127.285C61.4877 127.247 61.494 127.207 61.4914 127.166C61.4921 127.152 61.4893 127.139 61.4834 127.126C61.4775 127.114 61.4687 127.104 61.4579 127.097C61.2901 126.992 60.6928 127.238 60.2331 127.463Z" fill="#412525"/>
<path d="M60.0382 127.55C60.0261 127.553 60.0133 127.553 60.0013 127.55C59.9914 127.543 59.9836 127.533 59.9788 127.521C59.9741 127.51 59.9725 127.497 59.9744 127.485C59.9744 127.434 60.1355 126.281 60.7193 126.281H60.7697C60.9374 126.3 60.9844 126.39 60.9945 126.466C61.0415 126.785 60.3905 127.401 60.0617 127.553L60.0382 127.55ZM60.7093 126.405C60.3301 126.405 60.1623 127.071 60.1053 127.361C60.4408 127.148 60.8871 126.666 60.8603 126.474C60.8603 126.474 60.8603 126.416 60.7428 126.405H60.7093Z" fill="#412525"/>
<path d="M70.1655 36.7031L70.6923 36.6523C70.6923 36.6523 70.3601 37.0219 70.1655 36.7031Z" fill="#263238"/>
<path d="M67.8601 49.8384C63.4979 48.052 62.1356 45.3778 62.2396 44.8162L62.9107 44.8596H63.0248C63.1859 44.8596 63.3603 44.885 63.5248 44.9068C63.8335 44.9357 64.1523 44.972 64.4744 45.0191L64.8099 45.0698C66.4115 45.2793 67.9971 45.6123 69.5547 46.0663C70.266 46.291 70.5009 46.3634 70.8969 46.5156L71.2492 46.6533L71.3901 46.7113C71.7391 47.523 71.6619 49.1826 67.8601 49.8384Z" fill="#E4897B"/>
<path d="M67.8601 49.8384C63.4979 48.052 62.1356 45.3778 62.2396 44.8162L62.9107 44.8596H63.0248C63.9107 46.2185 65.8502 48.0955 67.8266 48.3528C69.4171 47.9904 70.917 47.5773 70.9036 46.5156L71.2559 46.6533L71.3968 46.7113C71.7391 47.523 71.6619 49.1826 67.8601 49.8384Z" fill="#412525"/>
<path opacity="0.3" d="M67.8601 49.8384C63.4979 48.052 62.1356 45.3778 62.2396 44.8162L62.9107 44.8596H63.0248C63.9107 46.2185 65.8502 48.0955 67.8266 48.3528C69.4171 47.9904 70.917 47.5773 70.9036 46.5156L71.2559 46.6533L71.3968 46.7113C71.7391 47.523 71.6619 49.1826 67.8601 49.8384Z" fill="black"/>
<path d="M59.0453 61.3145L58.3742 62.2277C58.3238 62.2965 58.3977 62.3944 58.5185 62.4197L69.4776 64.7243C69.5716 64.7461 69.6588 64.7243 69.6756 64.6482L69.9508 63.659C69.9709 63.5901 69.9004 63.5141 69.7964 63.4923L59.2131 61.2674C59.1836 61.2608 59.1532 61.2615 59.124 61.2697C59.0949 61.2779 59.068 61.2932 59.0453 61.3145Z" fill="#263238"/>
<path d="M60.2363 62.8907L59.9544 62.8327C59.8974 62.8327 59.8605 62.782 59.8705 62.7421L60.2397 61.4594C60.2397 61.4195 60.3068 61.4014 60.3605 61.4123L60.6457 61.4703C60.7027 61.4703 60.7396 61.5246 60.7296 61.5609L60.3605 62.8472C60.3471 62.8682 60.3276 62.8838 60.3052 62.8917C60.2828 62.8995 60.2585 62.8992 60.2363 62.8907Z" fill="#412525"/>
<path opacity="0.3" d="M60.2363 62.8907L59.9544 62.8327C59.8974 62.8327 59.8605 62.782 59.8705 62.7421L60.2397 61.4594C60.2397 61.4195 60.3068 61.4014 60.3605 61.4123L60.6457 61.4703C60.7027 61.4703 60.7396 61.5246 60.7296 61.5609L60.3605 62.8472C60.3471 62.8682 60.3276 62.8838 60.3052 62.8917C60.2828 62.8995 60.2585 62.8992 60.2363 62.8907Z" fill="black"/>
<path d="M60.9816 49.1393C60.8541 49.9981 60.7333 50.9511 60.646 51.8425C60.5588 52.7339 60.4816 53.6543 60.4413 54.5819C60.419 55.0385 60.4055 55.4951 60.4011 55.9516C60.4011 56.4046 60.4011 56.8575 60.4011 57.3105C60.4176 58.1979 60.4815 59.0835 60.5923 59.9629C60.6556 60.2641 60.7694 60.5502 60.9279 60.8072C61.1287 61.1601 61.353 61.4968 61.599 61.8146C62.1354 62.5017 62.7091 63.1539 63.317 63.7677C63.9311 64.4055 64.5753 65.0215 65.2364 65.623C65.8974 66.2245 66.5786 66.8224 67.2497 67.3985L66.5283 68.6016C64.9491 67.6669 63.4391 66.602 62.0117 65.4164C61.2748 64.8069 60.5796 64.1409 59.9313 63.4235C59.5856 63.0387 59.2682 62.6256 58.9817 62.1878C58.6272 61.6701 58.3748 61.0793 58.2401 60.4521L58.1159 59.6839C58.0723 59.4339 58.0421 59.1839 58.0153 58.9375C57.9482 58.4374 57.9113 57.941 57.8743 57.4446C57.8046 56.4572 57.7833 55.4666 57.8106 54.4768C57.8374 53.4949 57.8878 52.5165 57.9784 51.5418C58.069 50.567 58.1831 49.6104 58.3642 48.603L60.9816 49.1393Z" fill="#E4897B"/>
<path d="M58.7536 45.5229C57.3174 46.7767 57.6597 50.5017 57.6597 50.5017L62.4917 52.2193C62.4917 52.2193 62.2702 47.9254 62.0353 46.3817C61.7467 44.5446 60.1629 44.2873 58.7536 45.5229Z" fill="#263238"/>
<path d="M66.6588 67.1665L68.8432 66.2896L68.5077 68.5325C68.5077 68.5325 66.9239 69.1486 66.1118 68.3586L66.6588 67.1665Z" fill="#E4897B"/>
<path d="M71.4439 66.6229V68.355L68.5078 68.5325L68.8434 66.2896L71.4439 66.6229Z" fill="#E4897B"/>
<path d="M68.6753 64.6663L68.3934 64.6084C68.3364 64.6084 68.2994 64.5576 68.3095 64.5178L68.6786 63.235C68.6786 63.1952 68.7457 63.1771 68.8028 63.1879L69.0846 63.2459C69.1417 63.2459 69.1786 63.3002 69.1685 63.3365L68.7994 64.6229C68.7894 64.6591 68.7457 64.6808 68.6753 64.6663Z" fill="#412525"/>
<path opacity="0.3" d="M68.6753 64.6663L68.3934 64.6084C68.3364 64.6084 68.2994 64.5576 68.3095 64.5178L68.6786 63.235C68.6786 63.1952 68.7457 63.1771 68.8028 63.1879L69.0846 63.2459C69.1417 63.2459 69.1786 63.3002 69.1685 63.3365L68.7994 64.6229C68.7894 64.6591 68.7457 64.6808 68.6753 64.6663Z" fill="black"/>
<path d="M64.4576 63.7747L64.1724 63.7168C64.1154 63.7168 64.0785 63.666 64.0919 63.6262L64.461 62.3434C64.461 62.3036 64.5247 62.2854 64.5818 62.2963L64.867 62.3543C64.9207 62.3543 64.961 62.4087 64.9475 62.4449L64.5784 63.7313C64.5684 63.7747 64.5147 63.7929 64.4576 63.7747Z" fill="#412525"/>
<path opacity="0.3" d="M64.4576 63.7747L64.1724 63.7168C64.1154 63.7168 64.0785 63.666 64.0919 63.6262L64.461 62.3434C64.461 62.3036 64.5247 62.2854 64.5818 62.2963L64.867 62.3543C64.9207 62.3543 64.961 62.4087 64.9475 62.4449L64.5784 63.7313C64.5684 63.7747 64.5147 63.7929 64.4576 63.7747Z" fill="black"/>
<path d="M43.086 84.904L60.4811 125.93C60.8799 126.863 61.604 127.587 62.4955 127.945C63.387 128.302 64.3734 128.265 65.2393 127.84L68.0009 126.477L131.947 94.8616C132.811 94.4324 133.482 93.6513 133.814 92.6892C134.146 91.727 134.112 90.662 133.719 89.727L118.347 53.4912L116.334 48.7045C115.935 47.7728 115.21 47.0492 114.319 46.6915C113.428 46.3339 112.442 46.371 111.576 46.7949L44.8645 79.7694C44.0007 80.1988 43.3291 80.9794 42.996 81.9412C42.6628 82.903 42.6952 83.9679 43.086 84.904Z" fill="#412525"/>
<path opacity="0.1" d="M43.086 84.904L60.4811 125.93C60.8799 126.863 61.604 127.587 62.4955 127.945C63.387 128.302 64.3734 128.265 65.2393 127.84L68.0009 126.477L131.947 94.8616C132.811 94.4324 133.482 93.6513 133.814 92.6892C134.146 91.727 134.112 90.662 133.719 89.727L118.347 53.4912L116.334 48.7045C115.935 47.7728 115.21 47.0492 114.319 46.6915C113.428 46.3339 112.442 46.371 111.576 46.7949L44.8645 79.7694C44.0007 80.1988 43.3291 80.9794 42.996 81.9412C42.6628 82.903 42.6952 83.9679 43.086 84.904Z" fill="white"/>
<path d="M58.7171 121.77L131.953 85.562L123.382 65.3458L50.1461 101.554L58.7171 121.77Z" fill="#412525"/>
<path opacity="0.3" d="M58.7171 121.77L131.953 85.562L123.382 65.3458L50.1461 101.554L58.7171 121.77Z" fill="white"/>
<path d="M77.1363 104.814L123.417 81.9324L120.349 74.6972L74.0688 97.5786L77.1363 104.814Z" fill="#412525"/>
<path opacity="0.8" d="M77.1363 104.814L123.417 81.9324L120.349 74.6972L74.0688 97.5786L77.1363 104.814Z" fill="white"/>
<path d="M51.7816 105.418L125.017 69.2102L120.444 58.4234L47.2083 94.6317L51.7816 105.418Z" fill="#412525"/>
<path opacity="0.3" d="M51.7816 105.418L125.017 69.2102L120.444 58.4234L47.2083 94.6317L51.7816 105.418Z" fill="black"/>
<g style="mix-blend-mode:multiply">
<path d="M53.0319 85.4187L68.001 126.463L131.947 94.8472C132.811 94.418 133.482 93.6369 133.814 92.6747C134.146 91.7125 134.112 90.6476 133.719 89.7126L118.347 53.4768L55.0587 80.3927C54.1746 80.7716 53.4653 81.5127 53.0856 82.4544C52.7058 83.396 52.6865 84.4617 53.0319 85.4187Z" fill="#412525"/>
</g>
<path d="M137.672 72.4454L137.356 72.5652L137.879 74.1749L138.195 74.0551L137.672 72.4454Z" fill="#412525"/>
<path opacity="0.1" d="M137.672 72.4454L137.356 72.5652L137.879 74.1749L138.195 74.0551L137.672 72.4454Z" fill="white"/>
<path d="M135.028 64.348L134.711 64.468L136.775 70.8135L137.091 70.6934L135.028 64.348Z" fill="#412525"/>
<path opacity="0.1" d="M135.028 64.348L134.711 64.468L136.775 70.8135L137.091 70.6934L135.028 64.348Z" fill="white"/>
<path d="M57.485 80.5338L126.71 54.281C127.608 53.9435 128.593 54.0037 129.45 54.4485C130.307 54.8932 130.966 55.6864 131.283 56.6545L145.128 99.2279C145.441 100.198 145.386 101.262 144.975 102.188C144.564 103.114 143.83 103.827 142.934 104.17L73.709 130.423C72.8105 130.76 71.8251 130.699 70.9678 130.255C70.1104 129.81 69.4506 129.018 69.1321 128.05L55.2871 85.4764C54.9745 84.5061 55.0302 83.4417 55.442 82.5156C55.8538 81.5894 56.5883 80.877 57.485 80.5338Z" fill="#412525"/>
<path opacity="0.1" d="M57.485 80.5338L126.71 54.281C127.608 53.9435 128.593 54.0037 129.45 54.4485C130.307 54.8932 130.966 55.6864 131.283 56.6545L145.128 99.2279C145.441 100.198 145.386 101.262 144.975 102.188C144.564 103.114 143.83 103.827 142.934 104.17L73.709 130.423C72.8105 130.76 71.8251 130.699 70.9678 130.255C70.1104 129.81 69.4506 129.018 69.1321 128.05L55.2871 85.4764C54.9745 84.5061 55.0302 83.4417 55.442 82.5156C55.8538 81.5894 56.5883 80.877 57.485 80.5338Z" fill="white"/>
<path d="M66.6091 120.286L142.605 91.4666L136.583 72.9464L60.5864 101.766L66.6091 120.286Z" fill="#412525"/>
<path opacity="0.3" d="M66.6091 120.286L142.605 91.4666L136.583 72.9464L60.5864 101.766L66.6091 120.286Z" fill="white"/>
<path d="M112.635 72.5354L128.345 66.5779L127.486 63.9351L111.776 69.8926L112.635 72.5354Z" fill="#412525"/>
<path opacity="0.8" d="M112.635 72.5354L128.345 66.5779L127.486 63.9351L111.776 69.8926L112.635 72.5354Z" fill="white"/>
<path d="M125.857 102.458L138.46 97.6787L138.011 96.2975L125.407 101.077L125.857 102.458Z" fill="#412525"/>
<path opacity="0.8" d="M125.857 102.458L138.46 97.6787L138.011 96.2975L125.407 101.077L125.857 102.458Z" fill="white"/>
<path d="M123.077 106.482L139.319 100.323L138.869 98.9413L122.628 105.101L123.077 106.482Z" fill="#412525"/>
<path opacity="0.8" d="M123.077 106.482L139.319 100.323L138.869 98.9413L122.628 105.101L123.077 106.482Z" fill="white"/>
<path d="M73.8036 125.168L81.9243 122.089L80.9581 119.118L72.8374 122.197L73.8036 125.168Z" fill="#412525"/>
<path opacity="0.8" d="M73.8036 125.168L81.9243 122.089L80.9581 119.118L72.8374 122.197L73.8036 125.168Z" fill="white"/>
<path d="M124.378 93.6694L133.86 90.0748C134.36 89.8827 134.77 89.4852 135 88.9688C135.23 88.4524 135.261 87.8589 135.088 87.3172C134.91 86.7774 134.542 86.3352 134.064 86.0869C133.586 85.8385 133.036 85.8041 132.535 85.991L123.049 89.5892C122.549 89.7813 122.139 90.1788 121.909 90.6952C121.679 91.2116 121.647 91.8051 121.821 92.3468C121.999 92.8868 122.368 93.3288 122.847 93.5765C123.326 93.8242 123.876 93.8576 124.378 93.6694Z" fill="#412525"/>
<path d="M108.133 99.8293L117.62 96.2311C118.116 96.0382 118.522 95.6428 118.751 95.1298C118.98 94.6169 119.013 94.0274 118.844 93.4881C118.666 92.9489 118.297 92.5076 117.819 92.26C117.341 92.0123 116.792 91.9784 116.291 92.1655L106.808 95.7637C106.308 95.9558 105.899 96.3533 105.669 96.8697C105.439 97.386 105.407 97.9796 105.58 98.5212C105.761 99.0578 106.131 99.4957 106.608 99.7405C107.086 99.9853 107.634 100.017 108.133 99.8293Z" fill="#412525"/>
<path d="M91.8992 105.99L101.385 102.391C101.88 102.197 102.285 101.801 102.513 101.288C102.74 100.775 102.773 100.187 102.603 99.6482C102.425 99.1091 102.056 98.6678 101.578 98.4201C101.1 98.1725 100.551 98.1385 100.05 98.3256L90.557 101.909C90.0577 102.102 89.649 102.5 89.4197 103.016C89.1904 103.533 89.1589 104.126 89.3322 104.667C89.5107 105.209 89.8812 105.653 90.3624 105.901C90.8436 106.149 91.3963 106.181 91.8992 105.99Z" fill="#412525"/>
<path d="M75.6483 112.15L85.1344 108.551C85.6312 108.359 86.0382 107.964 86.2679 107.451C86.4975 106.938 86.5315 106.348 86.3625 105.808C86.184 105.269 85.8156 104.828 85.3375 104.58C84.8594 104.333 84.3101 104.299 83.809 104.486L74.3229 108.084C73.823 108.276 73.4135 108.674 73.1836 109.19C72.9536 109.706 72.9217 110.3 73.0948 110.842C73.276 111.378 73.6454 111.816 74.1233 112.061C74.6011 112.306 75.1489 112.337 75.6483 112.15Z" fill="#412525"/>
<g opacity="0.8">
<path opacity="0.8" d="M124.378 93.6694L133.86 90.0748C134.36 89.8827 134.77 89.4852 135 88.9688C135.23 88.4524 135.262 87.8589 135.089 87.3172C134.911 86.7774 134.543 86.3352 134.064 86.0869C133.586 85.8385 133.037 85.8041 132.535 85.991L123.049 89.5892C122.549 89.7813 122.14 90.1788 121.91 90.6952C121.68 91.2116 121.648 91.8051 121.821 92.3468C121.999 92.8868 122.368 93.3288 122.847 93.5765C123.326 93.8242 123.876 93.8576 124.378 93.6694Z" fill="white"/>
<path opacity="0.8" d="M108.134 99.8291L117.62 96.2309C118.116 96.038 118.522 95.6425 118.751 95.1296C118.98 94.6167 119.014 94.0272 118.845 93.4878C118.666 92.9487 118.298 92.5074 117.82 92.2597C117.341 92.0121 116.792 91.9781 116.291 92.1652L106.808 95.7634C106.308 95.9556 105.899 96.353 105.669 96.8694C105.439 97.3858 105.407 97.9793 105.58 98.521C105.761 99.0575 106.131 99.4955 106.609 99.7402C107.086 99.985 107.634 100.017 108.134 99.8291Z" fill="white"/>
<path opacity="0.8" d="M91.8994 105.99L101.386 102.391C101.88 102.197 102.285 101.801 102.513 101.288C102.74 100.775 102.773 100.187 102.604 99.6482C102.425 99.1091 102.057 98.6678 101.579 98.4201C101.1 98.1725 100.551 98.1385 100.05 98.3256L90.5572 101.909C90.0579 102.102 89.6492 102.5 89.4199 103.016C89.1906 103.533 89.1592 104.126 89.3324 104.667C89.5109 105.209 89.8814 105.653 90.3626 105.901C90.8439 106.149 91.3966 106.181 91.8994 105.99Z" fill="white"/>
<path opacity="0.8" d="M75.6483 112.15L85.1344 108.551C85.6312 108.359 86.0382 107.964 86.2679 107.451C86.4975 106.938 86.5315 106.348 86.3625 105.808C86.184 105.269 85.8156 104.828 85.3375 104.58C84.8594 104.333 84.3101 104.299 83.809 104.486L74.3229 108.084C73.823 108.276 73.4135 108.674 73.1836 109.19C72.9536 109.706 72.9217 110.3 73.0948 110.842C73.276 111.378 73.6454 111.816 74.1233 112.061C74.6011 112.306 75.1489 112.337 75.6483 112.15Z" fill="white"/>
</g>
<path d="M123.533 85.4278L131.974 82.2269C132.691 81.955 133.068 81.107 132.816 80.3329L131.057 74.9242C130.805 74.15 130.02 73.7428 129.303 74.0147L120.863 77.2156C120.146 77.4874 119.769 78.3354 120.021 79.1096L121.78 84.5183C122.031 85.2924 122.817 85.6996 123.533 85.4278Z" fill="#412525"/>
<path opacity="0.3" d="M123.533 85.4278L131.974 82.2269C132.691 81.955 133.068 81.107 132.816 80.3329L131.057 74.9242C130.805 74.15 130.02 73.7428 129.303 74.0147L120.863 77.2156C120.146 77.4874 119.769 78.3354 120.021 79.1096L121.78 84.5183C122.031 85.2924 122.817 85.6996 123.533 85.4278Z" fill="black"/>
<path d="M73.7792 91.0278C72.5616 91.0282 71.3882 90.5347 70.4913 89.6453C69.5945 88.7558 69.0397 87.5351 68.9366 86.2249C68.8336 84.9147 69.1899 83.6104 69.9349 82.5704C70.68 81.5303 71.7595 80.8303 72.9598 80.6089C74.1601 80.3875 75.3936 80.6608 76.4162 81.3747C77.4387 82.0887 78.1757 83.1913 78.4813 84.4641C78.7869 85.737 78.6388 87.0873 78.0663 88.2479C77.4938 89.4084 76.5386 90.2945 75.3899 90.7307C74.8725 90.9276 74.3278 91.028 73.7792 91.0278ZM73.7792 80.8818C73.2639 80.8829 72.7524 80.9772 72.2659 81.1608C71.126 81.5935 70.1919 82.4973 69.669 83.6736C69.1461 84.8498 69.0772 86.2022 69.4774 87.4332C69.7548 88.2834 70.2433 89.0348 70.8894 89.6054C71.5356 90.176 72.3145 90.5439 73.1412 90.6688C73.9678 90.7937 74.8103 90.6708 75.5767 90.3135C76.343 89.9563 77.0037 89.3785 77.4865 88.6432C77.9693 87.9079 78.2557 87.0435 78.3143 86.1443C78.3729 85.2452 78.2015 84.3459 77.8189 83.5449C77.4362 82.7438 76.8571 82.0717 76.1446 81.602C75.4322 81.1324 74.6139 80.8832 73.7792 80.8818Z" fill="#412525"/>
<path opacity="0.8" d="M73.7792 91.0278C72.5616 91.0282 71.3882 90.5347 70.4913 89.6453C69.5945 88.7558 69.0397 87.5351 68.9366 86.2249C68.8336 84.9147 69.1899 83.6104 69.9349 82.5704C70.68 81.5303 71.7595 80.8303 72.9598 80.6089C74.1601 80.3875 75.3936 80.6608 76.4162 81.3747C77.4387 82.0887 78.1757 83.1913 78.4813 84.4641C78.7869 85.737 78.6388 87.0873 78.0663 88.2479C77.4938 89.4084 76.5386 90.2945 75.3899 90.7307C74.8725 90.9276 74.3278 91.028 73.7792 91.0278ZM73.7792 80.8818C73.2639 80.8829 72.7524 80.9772 72.2659 81.1608C71.126 81.5935 70.1919 82.4973 69.669 83.6736C69.1461 84.8498 69.0772 86.2022 69.4774 87.4332C69.7548 88.2834 70.2433 89.0348 70.8894 89.6054C71.5356 90.176 72.3145 90.5439 73.1412 90.6688C73.9678 90.7937 74.8103 90.6708 75.5767 90.3135C76.343 89.9563 77.0037 89.3785 77.4865 88.6432C77.9693 87.9079 78.2557 87.0435 78.3143 86.1443C78.3729 85.2452 78.2015 84.3459 77.8189 83.5449C77.4362 82.7438 76.8571 82.0717 76.1446 81.602C75.4322 81.1324 74.6139 80.8832 73.7792 80.8818Z" fill="white"/>
<path d="M62.3975 90.1074C62.7069 91.0527 63.2687 91.8779 64.012 92.4787C64.7553 93.0795 65.6468 93.4289 66.5739 93.4829C67.501 93.5369 68.4222 93.293 69.221 92.782C70.0198 92.2711 70.6606 91.5159 71.0622 90.612C71.4639 89.7081 71.6086 88.6959 71.4779 87.7032C71.3472 86.7106 70.9471 85.782 70.328 85.0348C69.7089 84.2875 68.8987 83.7552 67.9997 83.5049C67.1006 83.2546 66.153 83.2976 65.2766 83.6284C64.693 83.8488 64.1554 84.1913 63.6946 84.6365C63.2339 85.0816 62.859 85.6206 62.5915 86.2225C62.3241 86.8244 62.1693 87.4774 62.136 88.1441C62.1027 88.8107 62.1916 89.4779 62.3975 90.1074Z" fill="#412525"/>
<path opacity="0.8" d="M62.3975 90.1074C62.7069 91.0527 63.2687 91.8779 64.012 92.4787C64.7553 93.0795 65.6468 93.4289 66.5739 93.4829C67.501 93.5369 68.4222 93.293 69.221 92.782C70.0198 92.2711 70.6606 91.5159 71.0622 90.612C71.4639 89.7081 71.6086 88.6959 71.4779 87.7032C71.3472 86.7106 70.9471 85.782 70.328 85.0348C69.7089 84.2875 68.8987 83.7552 67.9997 83.5049C67.1006 83.2546 66.153 83.2976 65.2766 83.6284C64.693 83.8488 64.1554 84.1913 63.6946 84.6365C63.2339 85.0816 62.859 85.6206 62.5915 86.2225C62.3241 86.8244 62.1693 87.4774 62.136 88.1441C62.1027 88.8107 62.1916 89.4779 62.3975 90.1074Z" fill="white"/>
</svg>
