<svg width="231" height="70" viewBox="0 0 231 70" fill="none" xmlns="http://www.w3.org/2000/svg">
<path d="M-2 59.9386C25.5817 37.6297 70.0444 27.8755 104.182 39.9441C124.871 47.2579 152.606 66.0022 176.582 61.1115C212.706 53.7429 233.727 28.4079 275.243 28.1934" stroke="#A1A0A6" stroke-width="2" stroke-linecap="round" stroke-dasharray="0 20"/>
<path fill-rule="evenodd" clip-rule="evenodd" d="M26.9707 61.6984L67.6264 60.0332C67.6264 60.0332 64.8432 57.1816 63.0562 56.4844C61.7029 55.9565 59.6742 55.7695 58.4935 56.0381C57.3226 54.3931 55.4312 51.8534 50.5315 52.043C46.3144 52.2061 43.2793 55.6499 41.6328 57.6831C40.023 56.9403 37.3583 56.7459 35.31 57.4481C31.3332 58.8116 26.9707 61.6984 26.9707 61.6984Z" fill="#FEA401"/>
<path d="M29.6416 31.3771L24.2588 31.5625" stroke="#363636" stroke-width="2" stroke-linecap="round"/>
<path d="M66.2206 29.9524L33.3857 31.2482" stroke="#363636" stroke-width="2" stroke-linecap="round"/>
<path d="M61.4087 33.7124L40.8604 34.3507" stroke="#363636" stroke-width="2" stroke-linecap="round"/>
<path d="M93.7601 26.6977L90.3545 26.8152" stroke="#363636" stroke-width="2" stroke-linecap="round"/>
<path d="M104.227 26.3323L96.1289 26.6162" stroke="#363636" stroke-width="2" stroke-linecap="round"/>
<path d="M77.9824 38.74L83.3676 38.6298" stroke="#363636" stroke-width="2" stroke-linecap="round"/>
<path d="M58.2588 39.6079L74.2362 38.8167" stroke="#363636" stroke-width="2" stroke-linecap="round"/>
<path d="M90.6279 58.9504L96.0131 58.8402" stroke="#363636" stroke-width="2" stroke-linecap="round"/>
<mask id="mask0" style="mask-type:alpha" maskUnits="userSpaceOnUse" x="94" y="11" width="89" height="22">
<path fill-rule="evenodd" clip-rule="evenodd" d="M94.0674 11.9644H182.373V32.1749H94.0674V11.9644Z" fill="white"/>
</mask>
<g mask="url(#mask0)">
<path fill-rule="evenodd" clip-rule="evenodd" d="M169.727 28.8291C169.727 28.8291 176.05 28.4216 182.373 31.5974L94.0879 32.1749C93.3537 31.5723 112.588 29.865 112.588 29.865C112.588 29.865 112.822 26.9779 115.866 24.9567C118.172 23.4263 121.018 23.8018 123.078 24.3905C123.13 17.5211 130.012 11.9644 138.499 11.9644C145.803 11.9644 150.102 16.5432 151.695 22.0696C154.43 19.9463 157.414 19.2265 160.126 19.4711C167.387 20.1261 169.727 28.8291 169.727 28.8291Z" fill="#FFF4E0"/>
</g>
<path fill-rule="evenodd" clip-rule="evenodd" d="M104.86 31.3623L102.49 26.4075C102.205 25.8103 102.12 25.1358 102.25 24.4863L102.611 22.6749C102.677 22.3404 103.065 22.1863 103.342 22.3846L114.227 30.1873" fill="#363636"/>
<path fill-rule="evenodd" clip-rule="evenodd" d="M168.556 34.8873C168.556 34.8873 168.088 41.2325 150.29 42.1725C132.493 43.1125 76.0563 43.8176 76.0563 43.8176L53.0836 49.9818C52.641 50.0993 52.1726 50.0852 51.7371 49.9395L50.161 49.413C49.9599 49.3449 49.9456 49.0629 50.1376 48.9759L64.5817 42.4075L56.5564 33.1694L52.0389 27.9688L48.9361 24.3967C48.8145 24.258 48.8941 24.0395 49.0768 24.0113L52.4138 23.4825C52.8658 23.4097 53.3295 23.4731 53.7463 23.6635L55.5237 24.4719L63.1623 27.95L78.3981 34.8873C78.3981 34.8873 124.999 28.0722 131.79 26.8971C138.582 25.7221 149.354 24.3121 152.398 26.8971L159.892 29.2472C159.892 29.2472 165.512 29.4822 167.151 31.3623C168.79 33.2423 168.556 34.8873 168.556 34.8873Z" fill="white"/>
<path fill-rule="evenodd" clip-rule="evenodd" d="M120.316 46.6378C120.316 46.6378 116.592 46.1605 115.164 45.9328C113.335 45.6412 110.85 45.1874 109.832 45.2318C108.739 45.2797 107.906 45.7683 107.62 46.6298C107.02 48.4361 107.989 49.7738 108.91 49.9587C109.883 50.154 120.033 51.7666 120.033 51.7666L120.316 46.6378Z" fill="white"/>
<path fill-rule="evenodd" clip-rule="evenodd" d="M121.626 49.2187C121.626 50.6487 121.018 51.808 120.268 51.808C119.519 51.808 118.911 50.6487 118.911 49.2187C118.911 47.7889 119.519 46.6296 120.268 46.6296C121.018 46.6296 121.626 47.7889 121.626 49.2187Z" fill="black"/>
<path fill-rule="evenodd" clip-rule="evenodd" d="M121.626 49.2187C121.626 50.6487 121.018 51.808 120.268 51.808C119.519 51.808 118.911 50.6487 118.911 49.2187C118.911 47.7889 119.519 46.6296 120.268 46.6296C121.018 46.6296 121.626 47.7889 121.626 49.2187Z" stroke="#363636" stroke-width="2" stroke-linecap="round"/>
<path fill-rule="evenodd" clip-rule="evenodd" d="M120.316 46.6378C120.316 46.6378 116.592 46.1605 115.164 45.9328C113.335 45.6412 110.85 45.1874 109.832 45.2318C108.739 45.2797 107.906 45.7683 107.62 46.6298C107.02 48.4361 107.989 49.7738 108.91 49.9587C109.883 50.154 120.033 51.7666 120.033 51.7666L120.316 46.6378Z" stroke="#363636" stroke-width="2" stroke-linecap="round"/>
<path fill-rule="evenodd" clip-rule="evenodd" d="M90.9266 39.9401C90.9266 39.9401 131.582 37.7005 138.465 37.355C143.148 37.12 155.559 35.945 160.945 34.2999C164.362 33.2565 167.034 31.2448 167.151 31.3624C168.673 32.8899 168.556 34.8874 168.556 34.8874C168.556 34.8874 168.088 41.2326 150.29 42.1726C132.493 43.1126 76.0564 43.8177 76.0564 43.8177L53.0831 49.9809C52.6405 50.0994 52.1729 50.0853 51.7378 49.9398L50.1611 49.4124C49.9592 49.345 49.9445 49.0635 50.1384 48.9753L64.5817 42.4076L63.3689 41.0117L90.9266 39.9401Z" fill="#FECE00"/>
<path fill-rule="evenodd" clip-rule="evenodd" d="M78.399 34.8874C78.399 34.8874 125 28.0723 131.791 26.8972C138.582 25.7222 149.355 24.3122 152.399 26.8972L159.893 29.2473C159.893 29.2473 165.513 29.4823 167.152 31.3623C168.791 33.2424 168.557 34.8874 168.557 34.8874C168.557 34.8874 168.089 41.2326 150.291 42.1726C132.494 43.1126 76.0572 43.8177 76.0572 43.8177L53.084 49.9809C52.6414 50.0994 52.1737 50.0853 51.7386 49.9398L50.1619 49.4124C49.9601 49.345 49.9453 49.0635 50.1392 48.9753L64.5825 42.4076L48.9367 24.3975C48.8159 24.2581 48.895 24.0398 49.0767 24.0109L52.4145 23.4821C52.8669 23.4105 53.3301 23.4734 53.7472 23.6633L78.399 34.8874Z" stroke="#363636" stroke-width="2" stroke-linecap="round"/>
<path fill-rule="evenodd" clip-rule="evenodd" d="M112.822 50.163C112.822 50.163 108.139 49.2229 105.797 48.9879C103.455 48.7529 101.237 48.3297 99.9426 48.3865C98.554 48.4474 97.4959 49.0683 97.1323 50.163C96.3698 52.4585 97.6006 54.158 98.7715 54.3931C100.008 54.6412 112.311 56.6907 112.311 56.6907L112.822 50.163Z" fill="white"/>
<path fill-rule="evenodd" clip-rule="evenodd" d="M114.93 53.4529C114.93 55.27 113.934 56.743 112.705 56.743C111.476 56.743 110.48 55.27 110.48 53.4529C110.48 51.6359 111.476 50.1628 112.705 50.1628C113.934 50.1628 114.93 51.6359 114.93 53.4529Z" fill="black"/>
<path fill-rule="evenodd" clip-rule="evenodd" d="M114.93 53.4529C114.93 55.27 113.934 56.743 112.705 56.743C111.476 56.743 110.48 55.27 110.48 53.4529C110.48 51.6359 111.476 50.1628 112.705 50.1628C113.934 50.1628 114.93 51.6359 114.93 53.4529Z" stroke="#363636" stroke-width="2" stroke-linecap="round"/>
<path fill-rule="evenodd" clip-rule="evenodd" d="M112.822 50.163C112.822 50.163 108.139 49.2229 105.797 48.9879C103.455 48.7529 101.237 48.3297 99.9426 48.3865C98.554 48.4474 97.4959 49.0683 97.1323 50.163C96.3698 52.4585 97.6006 54.158 98.7715 54.3931C100.008 54.6412 112.311 56.6907 112.311 56.6907L112.822 50.163Z" stroke="#363636" stroke-width="2" stroke-linecap="round"/>
<path fill-rule="evenodd" clip-rule="evenodd" d="M48.0781 62.08L94.791 42.6427L126.352 41.7443C126.618 41.7367 126.69 42.109 126.44 42.1995C120.51 44.3469 97.044 52.8156 90.1074 54.863C83.546 56.7994 63.3087 62.0875 56.3909 63.8881C54.8523 64.2886 53.2382 64.2895 51.6994 63.891L48.1404 62.9693C47.705 62.8567 47.6629 62.2527 48.0781 62.08Z" fill="white"/>
<path fill-rule="evenodd" clip-rule="evenodd" d="M48.0781 62.0798L94.791 42.6425L119.38 41.9375C119.38 41.9375 95.6389 49.9954 88.7024 52.0428C82.141 53.9792 52.7731 64.1916 51.2341 63.793L48.1404 62.9691C47.705 62.8565 47.6629 62.2526 48.0781 62.0798Z" fill="#FECE00"/>
<path fill-rule="evenodd" clip-rule="evenodd" d="M152.399 26.8972C152.399 26.8972 151.93 28.0722 148.418 29.0123C146.809 29.443 143.507 30.1666 142.435 30.3614C142.232 30.3981 142.079 30.5633 142.054 30.7687L141.693 33.8532C141.659 34.1469 141.898 34.3995 142.192 34.3767C144.085 34.2289 150.375 33.6438 155.677 32.0673C159.015 31.0749 159.892 29.2473 159.892 29.2473" fill="#363636"/>
<path fill-rule="evenodd" clip-rule="evenodd" d="M63.1625 27.95L62.24 29.2472L56.5566 33.1695L52.0391 27.9688L55.5238 24.4719L63.1625 27.95Z" fill="#363636"/>
<path fill-rule="evenodd" clip-rule="evenodd" d="M132.094 39.7083L130.505 39.8549C129.603 39.9381 128.805 39.2721 128.722 38.3673L128.299 33.746C128.216 32.8414 128.88 32.0405 129.781 31.9573L131.37 31.8107C132.272 31.7277 133.07 32.3937 133.153 33.2983L133.576 37.9197C133.659 38.8244 132.995 39.6251 132.094 39.7083Z" stroke="#363636" stroke-width="2" stroke-linecap="round"/>
<path fill-rule="evenodd" clip-rule="evenodd" d="M93.9628 37.6844C93.9899 38.0075 93.7508 38.2919 93.4288 38.3192C93.1066 38.3464 92.8232 38.1065 92.7961 37.7831C92.7687 37.4597 93.008 37.1756 93.3302 37.1484C93.6525 37.1211 93.9356 37.361 93.9628 37.6844Z" fill="#363636"/>
<path fill-rule="evenodd" clip-rule="evenodd" d="M97.2291 37.4075C97.2563 37.7307 97.0174 38.015 96.6952 38.0423C96.373 38.0696 96.0896 37.8296 96.0627 37.5062C96.0353 37.1829 96.2744 36.8988 96.5966 36.8715C96.9188 36.8442 97.2022 37.0842 97.2291 37.4075Z" fill="#363636"/>
<path fill-rule="evenodd" clip-rule="evenodd" d="M86.9188 38.1783C86.946 38.5017 86.7069 38.7858 86.3849 38.8133C86.0627 38.8405 85.7793 38.6004 85.7521 38.277C85.7247 37.9539 85.9641 37.6695 86.2863 37.6422C86.6085 37.615 86.8916 37.8552 86.9188 38.1783Z" fill="#363636"/>
<path fill-rule="evenodd" clip-rule="evenodd" d="M90.1862 37.9017C90.2133 38.2248 89.9745 38.5092 89.6522 38.5364C89.33 38.5637 89.0466 38.3238 89.0197 38.0004C88.9923 37.677 89.2314 37.3929 89.5536 37.3656C89.8759 37.3384 90.1592 37.5783 90.1862 37.9017Z" fill="#363636"/>
<path fill-rule="evenodd" clip-rule="evenodd" d="M100.497 37.1309C100.524 37.4541 100.285 37.7384 99.9628 37.7657C99.6405 37.7929 99.3574 37.553 99.3303 37.2296C99.3029 36.9063 99.5422 36.6221 99.8642 36.5949C100.186 36.5676 100.47 36.8076 100.497 37.1309Z" fill="#363636"/>
<path fill-rule="evenodd" clip-rule="evenodd" d="M103.764 36.8543C103.791 37.1777 103.552 37.4618 103.229 37.4891C102.907 37.5163 102.624 37.2764 102.597 36.953C102.569 36.6297 102.809 36.3455 103.131 36.3183C103.453 36.291 103.736 36.531 103.764 36.8543Z" fill="#363636"/>
<path fill-rule="evenodd" clip-rule="evenodd" d="M107.03 36.5777C107.057 36.9011 106.818 37.1852 106.496 37.2125C106.174 37.2397 105.891 36.9998 105.863 36.6764C105.836 36.353 106.075 36.0689 106.398 36.0417C106.72 36.0144 107.003 36.2543 107.03 36.5777Z" fill="#363636"/>
<path fill-rule="evenodd" clip-rule="evenodd" d="M110.297 36.3009C110.324 36.6242 110.085 36.9083 109.763 36.9358C109.441 36.9629 109.157 36.7229 109.13 36.3996C109.103 36.0764 109.342 35.7921 109.664 35.7648C109.986 35.7375 110.27 35.9777 110.297 36.3009Z" fill="#363636"/>
<path fill-rule="evenodd" clip-rule="evenodd" d="M113.563 36.0242C113.59 36.3476 113.351 36.6317 113.029 36.6592C112.707 36.6863 112.424 36.4463 112.397 36.1229C112.369 35.7998 112.609 35.5155 112.931 35.4882C113.253 35.4609 113.536 35.7011 113.563 36.0242Z" fill="#363636"/>
<path fill-rule="evenodd" clip-rule="evenodd" d="M116.831 35.7476C116.858 36.071 116.619 36.3551 116.297 36.3826C115.975 36.4099 115.691 36.1697 115.664 35.8466C115.637 35.5232 115.876 35.2388 116.198 35.2116C116.52 35.1843 116.804 35.4245 116.831 35.7476Z" fill="#363636"/>
<path fill-rule="evenodd" clip-rule="evenodd" d="M115.51 2.229L112.765 5.80791L109.145 0.162598L115.51 2.229Z" fill="#FEA401"/>
<path fill-rule="evenodd" clip-rule="evenodd" d="M48.0781 62.08L94.791 42.6427L126.352 41.7443C126.618 41.7367 126.69 42.109 126.44 42.1995C120.51 44.3469 97.044 52.8156 90.1074 54.863C83.546 56.7994 63.3087 62.0875 56.3909 63.8881C54.8523 64.2886 53.2382 64.2895 51.6994 63.891L48.1404 62.9693C47.705 62.8567 47.6629 62.2527 48.0781 62.08Z" stroke="#363636" stroke-width="2" stroke-linecap="round"/>
<path fill-rule="evenodd" clip-rule="evenodd" d="M213.871 69.8852C215.389 69.8852 216.619 68.65 216.619 67.1262C216.619 65.6024 215.389 64.3672 213.871 64.3672C212.353 64.3672 211.123 65.6024 211.123 67.1262C211.123 68.65 212.353 69.8852 213.871 69.8852Z" fill="#FEA401"/>
</svg>
