<svg width="38" height="38" viewBox="0 0 38 38" fill="none" xmlns="http://www.w3.org/2000/svg">
<g clip-path="url(#clip0)">
<path d="M3.30935 23.8211C4.09785 23.791 4.40819 23.3034 5.35819 23.3034C6.31452 23.3034 6.59319 23.8211 7.42444 23.81C8.28577 23.7926 8.82569 23.0279 9.35452 22.2425C9.95302 21.3495 10.2032 20.4898 10.2159 20.4407C10.1984 20.4233 8.55335 19.7836 8.53594 17.8551C8.51852 16.2401 9.83585 15.4738 9.89444 15.4263C9.15027 14.3053 7.99127 14.1849 7.58752 14.1549L7.5891 14.1564C6.55677 14.0963 5.67327 14.7534 5.1856 14.7534C4.68685 14.7534 3.93952 14.1865 3.11935 14.2039C2.05852 14.2229 1.0721 14.8325 0.532186 15.8015C-0.584064 17.7474 0.240852 20.6228 1.32069 22.2077C1.84794 22.9914 2.4781 23.8528 3.30935 23.8211ZM22.5627 17.7126H24.184C24.3202 16.989 24.9789 16.514 25.8829 16.514C26.9818 16.514 27.5993 17.0318 27.5993 17.9897V18.6404L25.3541 18.7798C23.2704 18.9064 22.1415 19.7741 22.1415 21.2799C22.1479 22.7983 23.31 23.81 24.9804 23.81C26.1078 23.81 27.1528 23.2321 27.6278 22.3106H27.6642V23.7214H29.3267V17.8757C29.3267 16.1831 27.9904 15.0859 25.9368 15.0859C24.0289 15.0859 22.6181 16.1942 22.5627 17.7126ZM27.604 20.5404C27.604 21.6377 26.6841 22.4199 25.4665 22.4199C24.5102 22.4199 23.899 21.9496 23.899 21.2387C23.899 20.4977 24.4864 20.0702 25.609 20.0037L27.604 19.877V20.5404ZM13.5504 11.9746V23.7198H15.349V19.7076H17.838C20.1117 19.7076 21.7029 18.1211 21.7029 15.8316C21.7029 13.5421 20.1354 11.9746 17.8966 11.9746H13.5504ZM19.8742 15.8364C19.8742 17.3184 18.9844 18.1749 17.4153 18.1749H15.349V13.512H17.4216C18.9828 13.512 19.8742 14.3544 19.8742 15.8364ZM34.0213 22.1349L31.9075 15.1983H30.0313L33.0713 23.7514L32.905 24.2692C32.6311 25.1495 32.1862 25.4931 31.3914 25.4931C31.2489 25.4931 30.9765 25.4757 30.8641 25.463V26.8738L31.5529 26.9165L31.5513 26.9149C33.304 26.9149 34.1274 26.2325 34.8478 24.1789L38.0002 15.1983H36.1714L34.0577 22.1349H34.0213Z" fill="#212121"/>
<path d="M7.45441 14.1533C6.47907 14.1533 5.65099 14.7534 5.18549 14.7534C4.69466 14.7534 3.96157 14.2039 3.15724 14.2039C3.14457 14.2039 3.13191 14.2039 3.11924 14.2039C2.05841 14.2229 1.07199 14.8325 0.532073 15.8015C-0.00309335 16.7357 -0.09176 17.8836 0.07924 18.9999H8.76857C8.62924 18.6832 8.53741 18.3032 8.53266 17.8551C8.51524 16.2401 9.83257 15.4738 9.89116 15.4263C9.15016 14.3053 7.99116 14.1849 7.58741 14.1549L7.58899 14.1564C7.54466 14.1549 7.49874 14.1533 7.45441 14.1533ZM25.9351 15.0859C24.0287 15.0859 22.6164 16.1942 22.5626 17.7126H24.1839C24.3201 16.989 24.9787 16.514 25.8828 16.514C26.9817 16.514 27.5992 17.0318 27.5992 17.9897V18.6404L25.354 18.7798C24.8489 18.8099 24.3992 18.8843 24.0082 19.0014H29.325V17.8773C29.3266 16.1815 27.9902 15.0859 25.9351 15.0859ZM15.3489 18.1765V13.512H17.4215C18.9827 13.512 19.8741 14.3559 19.8741 15.8379C19.8741 17.3199 18.9842 18.1765 17.4152 18.1765H15.3489ZM17.8965 11.9746H13.5502V18.9999H20.1828C21.1297 18.3238 21.7012 17.2044 21.7012 15.8316C21.7028 13.5421 20.1353 11.9746 17.8965 11.9746ZM31.9074 15.1983H30.0312L31.3833 18.9999H33.0664L31.9074 15.1983ZM38.0001 15.1983H36.1713L35.0123 18.9999H36.6653L38.0001 15.1983Z" fill="#3E3E3E"/>
<path d="M5.07148 14.019C5.78398 14.0792 6.49648 13.658 6.94298 13.1212V13.1197C7.38156 12.5718 7.6729 11.8292 7.60165 11.0835C6.96673 11.1152 6.18931 11.5047 5.74281 12.0541C5.33273 12.5227 4.98281 13.2954 5.07148 14.019Z" fill="#212121"/>
<path d="M7.60097 11.0835C6.96606 11.1152 6.18864 11.5047 5.74214 12.0541C5.61864 12.1966 5.49989 12.366 5.39697 12.5544H7.30489C7.52814 12.1079 7.65006 11.5965 7.60097 11.0835Z" fill="#3E3E3E"/>
</g>
<defs>
<clipPath id="clip0">
<rect width="38" height="38" fill="white"/>
</clipPath>
</defs>
</svg>
