<svg width="38" height="29" viewBox="0 0 38 29" fill="none" xmlns="http://www.w3.org/2000/svg">
<path d="M24.9375 15.4375C24.9375 17.0122 24.3119 18.5224 23.1984 19.6359C22.0849 20.7494 20.5747 21.375 19 21.375C17.4253 21.375 15.9151 20.7494 14.8016 19.6359C13.6881 18.5224 13.0625 17.0122 13.0625 15.4375C13.0625 13.8628 13.6881 12.3526 14.8016 11.2391C15.9151 10.1256 17.4253 9.5 19 9.5C20.5747 9.5 22.0849 10.1256 23.1984 11.2391C24.3119 12.3526 24.9375 13.8628 24.9375 15.4375Z" fill="#C4C4C4"/>
<path d="M4.75 4.75C3.49022 4.75 2.28204 5.25044 1.39124 6.14124C0.500445 7.03204 0 8.24022 0 9.5L0 23.75C0 25.0098 0.500445 26.218 1.39124 27.1088C2.28204 27.9996 3.49022 28.5 4.75 28.5H33.25C34.5098 28.5 35.718 27.9996 36.6088 27.1088C37.4996 26.218 38 25.0098 38 23.75V9.5C38 8.24022 37.4996 7.03204 36.6088 6.14124C35.718 5.25044 34.5098 4.75 33.25 4.75H30.4665C29.2068 4.74973 27.9988 4.24911 27.1082 3.35825L25.1418 1.39175C24.2512 0.50089 23.0432 0.000269028 21.7835 0H16.2165C14.9568 0.000269028 13.7488 0.50089 12.8582 1.39175L10.8918 3.35825C10.0012 4.24911 8.79317 4.74973 7.5335 4.75H4.75ZM5.9375 9.5C5.62256 9.5 5.32051 9.37489 5.09781 9.15219C4.87511 8.92949 4.75 8.62744 4.75 8.3125C4.75 7.99756 4.87511 7.69551 5.09781 7.47281C5.32051 7.25011 5.62256 7.125 5.9375 7.125C6.25244 7.125 6.55449 7.25011 6.77719 7.47281C6.99989 7.69551 7.125 7.99756 7.125 8.3125C7.125 8.62744 6.99989 8.92949 6.77719 9.15219C6.55449 9.37489 6.25244 9.5 5.9375 9.5ZM27.3125 15.4375C27.3125 17.6421 26.4367 19.7564 24.8778 21.3153C23.3189 22.8742 21.2046 23.75 19 23.75C16.7954 23.75 14.6811 22.8742 13.1222 21.3153C11.5633 19.7564 10.6875 17.6421 10.6875 15.4375C10.6875 13.2329 11.5633 11.1186 13.1222 9.55968C14.6811 8.00078 16.7954 7.125 19 7.125C21.2046 7.125 23.3189 8.00078 24.8778 9.55968C26.4367 11.1186 27.3125 13.2329 27.3125 15.4375Z" fill="#C4C4C4"/>
</svg>
