<svg width="20" height="15" viewBox="0 0 20 15" fill="none" xmlns="http://www.w3.org/2000/svg">
<path d="M1 0H19C19.2652 0 19.5196 0.0877973 19.7071 0.244078C19.8946 0.400358 20 0.61232 20 0.833333V14.1667C20 14.3877 19.8946 14.5996 19.7071 14.7559C19.5196 14.9122 19.2652 15 19 15H1C0.734784 15 0.48043 14.9122 0.292893 14.7559C0.105357 14.5996 0 14.3877 0 14.1667V0.833333C0 0.61232 0.105357 0.400358 0.292893 0.244078C0.48043 0.0877973 0.734784 0 1 0ZM18 7.5H2V13.3333H18V7.5ZM18 4.16667V1.66667H2V4.16667H18Z" fill="#412525"/>
</svg>
