<svg width="17" height="57" viewBox="0 0 17 57" fill="none" xmlns="http://www.w3.org/2000/svg">
<rect x="0.0712891" width="1.35193" height="1.45992" fill="#6C2C00"/>
<rect x="0.0712891" y="7.29956" width="1.35193" height="1.45992" fill="#6C2C00"/>
<rect x="0.0712891" y="16.0591" width="1.35193" height="1.45992" fill="#6C2C00"/>
<rect x="0.0712891" y="23.3588" width="1.35193" height="1.45992" fill="#6C2C00"/>
<rect x="0.0712891" y="32.1183" width="1.35193" height="1.45992" fill="#6C2C00"/>
<rect x="0.0712891" y="39.4178" width="1.35193" height="1.45992" fill="#6C2C00"/>
<rect x="0.0712891" y="46.7175" width="1.35193" height="1.45992" fill="#6C2C00"/>
<rect x="0.0712891" y="55.4772" width="1.35193" height="1.45992" fill="#6C2C00"/>
<rect x="6.83105" width="1.35193" height="1.45992" fill="#6C2C00"/>
<rect x="6.83105" y="7.29956" width="1.35193" height="1.45992" fill="#6C2C00"/>
<rect x="6.83105" y="16.0591" width="1.35193" height="1.45992" fill="#6C2C00"/>
<rect x="6.83105" y="23.3589" width="1.35193" height="1.45992" fill="#6C2C00"/>
<rect x="6.83105" y="32.1184" width="1.35193" height="1.45992" fill="#6C2C00"/>
<rect x="6.83105" y="39.418" width="1.35193" height="1.45992" fill="#6C2C00"/>
<rect x="6.83105" y="46.7175" width="1.35193" height="1.45992" fill="#6C2C00"/>
<rect x="6.83105" y="55.4771" width="1.35193" height="1.45992" fill="#6C2C00"/>
<rect x="14.9426" width="1.35193" height="1.45992" fill="#6C2C00"/>
<rect x="14.9426" y="7.29956" width="1.35193" height="1.45992" fill="#6C2C00"/>
<rect x="14.9426" y="16.0591" width="1.35193" height="1.45992" fill="#6C2C00"/>
<rect x="14.9426" y="23.3589" width="1.35193" height="1.45992" fill="#6C2C00"/>
<rect x="14.9426" y="32.1184" width="1.35193" height="1.45992" fill="#6C2C00"/>
<rect x="14.9426" y="39.418" width="1.35193" height="1.45992" fill="#6C2C00"/>
<rect x="14.9426" y="46.7175" width="1.35193" height="1.45992" fill="#6C2C00"/>
<rect x="14.9426" y="55.4771" width="1.35193" height="1.45992" fill="#6C2C00"/>
</svg>
