<svg width="53" height="18" viewBox="0 0 53 18" fill="none" xmlns="http://www.w3.org/2000/svg">
<rect x="0.15332" y="17.519" width="1.45992" height="1.35193" transform="rotate(-90 0.15332 17.519)" fill="#6C2C00"/>
<rect x="6.91309" y="17.519" width="1.45992" height="1.35193" transform="rotate(-90 6.91309 17.519)" fill="#6C2C00"/>
<rect x="15.0244" y="17.519" width="1.45992" height="1.35193" transform="rotate(-90 15.0244 17.519)" fill="#6C2C00"/>
<rect x="21.7842" y="17.519" width="1.45992" height="1.35193" transform="rotate(-90 21.7842 17.519)" fill="#6C2C00"/>
<rect x="29.8958" y="17.519" width="1.45992" height="1.35193" transform="rotate(-90 29.8958 17.519)" fill="#6C2C00"/>
<rect x="36.6553" y="17.519" width="1.45992" height="1.35193" transform="rotate(-90 36.6553 17.519)" fill="#6C2C00"/>
<rect x="43.4153" y="17.519" width="1.45992" height="1.35193" transform="rotate(-90 43.4153 17.519)" fill="#6C2C00"/>
<rect x="51.5266" y="17.519" width="1.45992" height="1.35193" transform="rotate(-90 51.5266 17.519)" fill="#6C2C00"/>
<rect x="0.15332" y="10.2195" width="1.45992" height="1.35193" transform="rotate(-90 0.15332 10.2195)" fill="#6C2C00"/>
<rect x="6.91309" y="10.2195" width="1.45992" height="1.35193" transform="rotate(-90 6.91309 10.2195)" fill="#6C2C00"/>
<rect x="15.0244" y="10.2195" width="1.45992" height="1.35193" transform="rotate(-90 15.0244 10.2195)" fill="#6C2C00"/>
<rect x="21.7842" y="10.2195" width="1.45992" height="1.35193" transform="rotate(-90 21.7842 10.2195)" fill="#6C2C00"/>
<rect x="29.8958" y="10.2195" width="1.45992" height="1.35193" transform="rotate(-90 29.8958 10.2195)" fill="#6C2C00"/>
<rect x="36.6553" y="10.2195" width="1.45992" height="1.35193" transform="rotate(-90 36.6553 10.2195)" fill="#6C2C00"/>
<rect x="43.4153" y="10.2195" width="1.45992" height="1.35193" transform="rotate(-90 43.4153 10.2195)" fill="#6C2C00"/>
<rect x="51.5266" y="10.2195" width="1.45992" height="1.35193" transform="rotate(-90 51.5266 10.2195)" fill="#6C2C00"/>
<rect x="0.15332" y="1.45996" width="1.45992" height="1.35193" transform="rotate(-90 0.15332 1.45996)" fill="#6C2C00"/>
<rect x="6.91309" y="1.45996" width="1.45992" height="1.35193" transform="rotate(-90 6.91309 1.45996)" fill="#6C2C00"/>
<rect x="15.0244" y="1.45996" width="1.45992" height="1.35193" transform="rotate(-90 15.0244 1.45996)" fill="#6C2C00"/>
<rect x="21.7842" y="1.45996" width="1.45992" height="1.35193" transform="rotate(-90 21.7842 1.45996)" fill="#6C2C00"/>
<rect x="29.8958" y="1.45996" width="1.45992" height="1.35193" transform="rotate(-90 29.8958 1.45996)" fill="#6C2C00"/>
<rect x="36.6553" y="1.45996" width="1.45992" height="1.35193" transform="rotate(-90 36.6553 1.45996)" fill="#6C2C00"/>
<rect x="43.4153" y="1.45996" width="1.45992" height="1.35193" transform="rotate(-90 43.4153 1.45996)" fill="#6C2C00"/>
<rect x="51.5266" y="1.45996" width="1.45992" height="1.35193" transform="rotate(-90 51.5266 1.45996)" fill="#6C2C00"/>
</svg>
