<svg width="140" height="135" viewBox="0 0 140 135" fill="none" xmlns="http://www.w3.org/2000/svg">
<rect x="15.2593" y="12.6667" width="109.482" height="109.482" rx="7" stroke="#FEA401" stroke-width="2"/>
<rect x="49.2593" width="41.4815" height="23.3334" fill="white"/>
<rect x="49.2593" y="111.482" width="41.4815" height="23.3334" fill="white"/>
<rect y="44.0742" width="28.5185" height="46.6667" fill="white"/>
<rect x="111.481" y="44.0742" width="28.5185" height="46.6667" fill="white"/>
<path d="M101.532 36.8918H38.4684C34.9868 36.8918 32.1621 39.8427 32.1621 43.4797V45.6756H107.838V43.4797C107.838 39.8427 105.013 36.8918 101.532 36.8918ZM32.1621 91.7905C32.1621 95.4276 34.9868 98.3784 38.4684 98.3784H101.532C105.013 98.3784 107.838 95.4276 107.838 91.7905V50.0675H32.1621V91.7905ZM78.4084 59.9493C78.4084 59.3454 78.8814 58.8513 79.4594 58.8513H98.3784C98.9565 58.8513 99.4294 59.3454 99.4294 59.9493V62.1452C99.4294 62.7491 98.9565 63.2432 98.3784 63.2432H79.4594C78.8814 63.2432 78.4084 62.7491 78.4084 62.1452V59.9493ZM78.4084 68.7331C78.4084 68.1292 78.8814 67.6351 79.4594 67.6351H98.3784C98.9565 67.6351 99.4294 68.1292 99.4294 68.7331V70.929C99.4294 71.5329 98.9565 72.027 98.3784 72.027H79.4594C78.8814 72.027 78.4084 71.5329 78.4084 70.929V68.7331ZM78.4084 77.5169C78.4084 76.913 78.8814 76.4189 79.4594 76.4189H98.3784C98.9565 76.4189 99.4294 76.913 99.4294 77.5169V79.7128C99.4294 80.3167 98.9565 80.8108 98.3784 80.8108H79.4594C78.8814 80.8108 78.4084 80.3167 78.4084 79.7128V77.5169ZM55.2852 58.8513C59.923 58.8513 63.6937 62.7903 63.6937 67.6351C63.6937 72.4799 59.923 76.4189 55.2852 76.4189C50.6475 76.4189 46.8768 72.4799 46.8768 67.6351C46.8768 62.7903 50.6475 58.8513 55.2852 58.8513ZM40.9778 86.8771C42.0814 83.3499 45.2477 80.8108 48.9789 80.8108H50.0563C51.6723 81.5108 53.4328 81.9088 55.2852 81.9088C57.1377 81.9088 58.9114 81.5108 60.5142 80.8108H61.5916C65.3228 80.8108 68.4891 83.3499 69.5927 86.8771C70.0131 88.2358 68.9095 89.5946 67.5431 89.5946H43.0274C41.661 89.5946 40.5574 88.2221 40.9778 86.8771Z" fill="#EDEDED"/>
</svg>
