<svg width="16" height="16" viewBox="0 0 16 16" fill="none" xmlns="http://www.w3.org/2000/svg">
    <path d="M15.6934 8.09599C15.6934 7.4448 15.64 6.9696 15.5243 6.47681H8.00684V9.41597H12.4194C12.3305 10.1464 11.8501 11.2464 10.7825 11.9856L10.7675 12.084L13.1444 13.9053L13.3091 13.9216C14.8215 12.54 15.6934 10.5072 15.6934 8.09599Z" fill="#4285F4"/>
    <path d="M8.00679 15.84C10.1686 15.84 11.9835 15.1359 13.3091 13.9216L10.7825 11.9855C10.1063 12.4519 9.19888 12.7775 8.00679 12.7775C5.88944 12.7775 4.09237 11.396 3.45176 9.48639L3.35786 9.49428L0.886326 11.3863L0.854004 11.4752C2.17067 14.0623 4.8752 15.84 8.00679 15.84Z" fill="#34A853"/>
    <path d="M3.4518 9.48639C3.28277 8.9936 3.18494 8.46556 3.18494 7.91999C3.18494 7.37435 3.28277 6.84638 3.4429 6.35358L3.43843 6.24863L0.935918 4.32623L0.854041 4.36476C0.31138 5.43837 0 6.64399 0 7.91999C0 9.19598 0.31138 10.4015 0.854041 11.4752L3.4518 9.48639Z" fill="#FBBC05"/>
    <path d="M8.00678 3.06238C9.51026 3.06238 10.5244 3.70477 11.1027 4.24161L13.3624 2.0592C11.9746 0.783203 10.1686 0 8.00678 0C4.8752 0 2.17067 1.77759 0.854004 4.36476L3.44287 6.35359C4.09237 4.44399 5.88944 3.06238 8.00678 3.06238Z" fill="#EB4335"/>
</svg>
