<svg width="10" height="13" viewBox="0 0 10 13" fill="none" xmlns="http://www.w3.org/2000/svg">
<path d="M4.83187 3.05615C4.48018 3.05615 4.13639 3.16044 3.84398 3.35583C3.55156 3.55121 3.32365 3.82892 3.18907 4.15384C3.05448 4.47875 3.01927 4.83628 3.08788 5.18121C3.15649 5.52613 3.32584 5.84297 3.57452 6.09165C3.8232 6.34033 4.14004 6.50968 4.48496 6.57829C4.82989 6.6469 5.18742 6.61169 5.51234 6.47711C5.83725 6.34252 6.11496 6.11461 6.31035 5.8222C6.50573 5.52978 6.61002 5.18599 6.61002 4.83431C6.60948 4.36288 6.42197 3.91091 6.08862 3.57755C5.75527 3.2442 5.3033 3.05669 4.83187 3.05615ZM4.83187 5.72338C4.65602 5.72338 4.48413 5.67124 4.33792 5.57355C4.19171 5.47585 4.07776 5.337 4.01047 5.17454C3.94317 5.01208 3.92557 4.83332 3.95987 4.66086C3.99418 4.48839 4.07885 4.32997 4.20319 4.20563C4.32753 4.08129 4.48595 3.99662 4.65842 3.96231C4.83088 3.92801 5.00964 3.94561 5.1721 4.01291C5.33456 4.0802 5.47341 4.19415 5.57111 4.34036C5.6688 4.48657 5.72094 4.65846 5.72094 4.83431C5.72067 5.07002 5.62691 5.296 5.46024 5.46268C5.29356 5.62935 5.06758 5.72311 4.83187 5.72338Z" fill="#412525"/>
<path d="M8.24864 1.41489C7.40382 0.570275 6.27608 0.0685418 5.08308 0.00652126C3.89007 -0.0554992 2.71639 0.32659 1.78853 1.07905C0.860681 1.8315 0.244441 2.90098 0.0587484 4.08107C-0.126944 5.26116 0.131075 6.46821 0.783008 7.46925L4.14225 12.6263C4.217 12.741 4.31921 12.8353 4.43962 12.9006C4.56002 12.9658 4.69481 13 4.83177 13C4.96872 13 5.10351 12.9658 5.22392 12.9006C5.34432 12.8353 5.44653 12.741 5.52129 12.6263L8.88064 7.46925C9.48556 6.54064 9.75289 5.43231 9.63783 4.33004C9.52276 3.22777 9.0323 2.19855 8.24864 1.41489ZM8.1357 6.98395L4.83178 12.0559L1.52783 6.98395C0.516507 5.43143 0.733414 3.35377 2.04358 2.04355C2.40973 1.67739 2.84441 1.38694 3.32281 1.18877C3.80121 0.990608 4.31396 0.888614 4.83178 0.888614C5.3496 0.888614 5.86235 0.990608 6.34075 1.18877C6.81915 1.38694 7.25383 1.67739 7.61998 2.04355C8.93015 3.35377 9.14703 5.43143 8.1357 6.98395Z" fill="#412525"/>
</svg>
